<svg width="56" height="57" viewBox="0 0 56 57" fill="none" xmlns="http://www.w3.org/2000/svg">
<g clip-path="url(#clip0_2396_27226)">
<path d="M21.0435 14.725C21.1125 11.724 20.2029 9.25499 18.3389 7.38697C15.0211 4.0692 11.8008 3.6225 8.68611 3.19204C6.0993 2.83874 3.65463 2.50169 1.02316 0.625545C0.767324 0.438743 0.414024 0.47123 0.190674 0.69458C-0.0326762 0.917931 -0.0651635 1.27123 0.121639 1.52707C1.99778 4.15448 2.33484 6.59915 2.6922 9.19001C3.12265 12.3047 3.56529 15.525 6.88712 18.8428C8.69017 20.6459 11.0496 21.5555 13.9084 21.5555C14.014 21.5555 14.1196 21.5514 14.2252 21.5474L47.7602 55.0824C48.6699 55.992 49.8841 56.4956 51.1714 56.4956C52.4587 56.4956 53.6729 55.992 54.5826 55.0824C55.4922 54.1728 55.9958 52.9585 55.9958 51.6712C55.9958 50.3839 55.4922 49.1697 54.5826 48.2601L21.0435 14.725ZM7.80083 17.925C4.78763 14.9118 4.39372 12.0448 3.97545 9.01133C3.70336 7.05397 3.42722 5.04382 2.4526 2.95651C4.54397 3.93113 6.55007 4.20727 8.50743 4.47935C11.5409 4.89763 14.4079 5.2956 17.4211 8.30473C19.0293 9.91285 19.813 12.0692 19.7521 14.7129L14.2089 20.256C11.5612 20.321 9.41301 19.5372 7.80083 17.925ZM20.3897 15.9068L30.1034 25.6205L25.1125 30.6113L15.3988 20.8976L20.3897 15.9068ZM53.6648 54.1687C52.9988 54.8347 52.1135 55.2002 51.1714 55.2002C50.2293 55.2002 49.344 54.8347 48.678 54.1687L26.0343 31.525L31.0252 26.5342L53.6689 49.1778C54.3348 49.8438 54.7003 50.7291 54.7003 51.6712C54.7003 52.6134 54.3348 53.4986 53.6689 54.1646L53.6648 54.1687Z" fill="#4D4D4D"/>
<path d="M36.2756 25.1721C36.0238 25.4239 36.0238 25.834 36.2756 26.0899C36.4015 26.2157 36.568 26.2807 36.7345 26.2807C36.901 26.2807 37.0675 26.2157 37.1934 26.0899L38.7731 24.5102C40.6451 22.6381 40.6451 19.5965 38.7731 17.7244C36.901 15.8523 33.8594 15.8523 31.9873 17.7244L30.4076 19.3041C30.1558 19.5558 30.1558 19.966 30.4076 20.2218C30.6594 20.4736 31.0695 20.4736 31.3253 20.2218L32.905 18.6421C34.2695 17.2777 36.4908 17.2777 37.8594 18.6421C39.2238 20.0066 39.2238 22.2279 37.8594 23.5965L36.2797 25.1762L36.2756 25.1721Z" fill="#4D4D4D"/>
<path d="M19.7145 31.8253C19.9663 31.5736 19.9663 31.1634 19.7145 30.9076C19.4628 30.6558 19.0526 30.6558 18.7968 30.9076L13.7166 35.9878C11.8445 37.8599 11.8445 40.9015 13.7166 42.7736C14.6506 43.7076 15.881 44.1786 17.1074 44.1786C18.3338 44.1786 19.5643 43.7116 20.4983 42.7736L25.5785 37.6934C25.8303 37.4416 25.8181 37.0193 25.5663 36.7634C25.3145 36.5076 24.9125 36.5157 24.6567 36.7634C24.6282 36.7918 24.6039 36.8203 24.5795 36.8528L19.5805 41.8517C18.2161 43.2162 15.9907 43.2162 14.6262 41.8517C13.2617 40.4873 13.2617 38.266 14.6262 36.8974L19.7064 31.8172L19.7145 31.8253Z" fill="#4D4D4D"/>
<path d="M27.966 16.8655L36.3274 8.50406L47.9944 20.1711L39.633 28.5325C39.3812 28.7843 39.3812 29.1944 39.633 29.4503C39.7589 29.5761 39.9254 29.6411 40.0919 29.6411C40.2584 29.6411 40.4249 29.5761 40.5507 29.4503L49.3711 20.6299C49.6228 20.3782 49.6228 19.968 49.3711 19.7122L48.6848 19.0259L49.769 17.9416C51.4137 16.297 51.5112 14.6442 51.6046 13.0482C51.6898 11.5782 51.7792 10.0553 52.965 8.17512L55.3974 4.52436C56.2259 3.28172 56.1974 2.06345 55.3162 1.18629C54.435 0.305073 53.2208 0.276647 51.9782 1.10507L48.3233 3.54162C46.4431 4.72741 44.9203 4.81675 43.4502 4.90203C41.8543 4.99543 40.2015 5.09289 38.5568 6.73756L37.4726 7.82183L36.7863 7.13553C36.5345 6.88375 36.1244 6.88375 35.8685 7.13553L27.0482 15.9558C26.7964 16.2076 26.7964 16.6178 27.0482 16.8736C27.3 17.1254 27.7101 17.1254 27.966 16.8736V16.8655ZM52.6969 2.17715C53.4076 1.70203 53.9802 1.67766 54.4025 2.09594C54.8208 2.51421 54.7964 3.09086 54.3213 3.80152L52.3193 6.8066L49.6959 4.18325L52.701 2.18122L52.6969 2.17715ZM39.4746 7.64721C40.7741 6.34771 41.9883 6.27868 43.5274 6.18934C44.9771 6.10406 46.6056 6.01066 48.5711 4.89797L51.6005 7.92741C50.4878 9.89289 50.3944 11.5213 50.3091 12.9711C50.2198 14.5101 50.1467 15.7284 48.8513 17.0239L47.767 18.1081L38.3903 8.73147L39.4746 7.64721Z" fill="#4D4D4D"/>
<path d="M28.0286 40.1369L16.2194 51.946L4.55244 40.279L16.3616 28.4699C16.6134 28.2181 16.6134 27.808 16.3616 27.5521C16.1098 27.3003 15.6996 27.3003 15.4438 27.5521L3.17579 39.8201C2.92401 40.0719 2.92401 40.4821 3.17579 40.7379L3.86208 41.4242L0.848886 44.4374C0.300662 44.9856 -0.00390625 45.7206 -0.00390625 46.5003C-0.00390625 47.28 0.296601 48.0151 0.848886 48.5633L7.93112 55.6455C8.47934 56.1937 9.21031 56.4983 9.99406 56.4983C10.7778 56.4983 11.5088 56.1978 12.057 55.6455L15.0702 52.6323L15.7565 53.3186C15.8824 53.4445 16.0489 53.5095 16.2154 53.5095C16.3819 53.5095 16.5484 53.4445 16.6743 53.3186L28.9423 41.0506C29.1941 40.7988 29.1941 40.3887 28.9423 40.1328C28.6905 39.881 28.2804 39.881 28.0245 40.1328L28.0286 40.1369ZM11.1433 54.7277C10.8387 55.0323 10.4326 55.1988 9.99813 55.1988C9.56361 55.1988 9.15752 55.0323 8.85295 54.7277L1.77071 47.6455C1.46614 47.3409 1.29965 46.9349 1.29965 46.5003C1.29965 46.0658 1.46614 45.6597 1.77071 45.3552L4.78391 42.342L14.1565 51.7186L11.1433 54.7318V54.7277Z" fill="#4D4D4D"/>
</g>
<defs>
<clipPath id="clip0_2396_27226">
<rect width="56" height="56" fill="white" transform="translate(0 0.5)"/>
</clipPath>
</defs>
</svg>
