<svg width="56" height="49" viewBox="0 0 56 49" fill="none" xmlns="http://www.w3.org/2000/svg">
<g clip-path="url(#clip0_2396_27201)">
<path d="M53.016 19.9622C52.5884 17.6918 50.7672 8.05039 50.1188 4.74157C49.3462 0.784555 47.9562 0.496094 45.7625 0.496094H10.2331C8.03945 0.496094 6.65291 0.781162 5.87685 4.74157C5.22842 8.05039 3.40728 17.6918 2.97959 19.9622C1.29297 20.2269 -0.00390625 21.6658 -0.00390625 23.3965V26.2303C-0.00390625 26.59 0.292719 26.8784 0.654877 26.8784H2.97614L5.8734 44.2336C6.53564 48.2008 7.98082 48.4893 10.1193 48.4961H45.8971C48.0183 48.4961 49.46 48.1873 50.1188 44.2336L53.016 26.8784H55.3373C55.7029 26.8784 55.9961 26.5866 55.9961 26.2303V23.3965C55.9961 21.6624 54.6992 20.2235 53.0126 19.9622H53.016ZM7.17372 4.98931C7.79802 1.79587 8.56027 1.79587 10.2331 1.79587H45.7625C47.4354 1.79587 48.1976 1.79587 48.8219 4.98931C49.4428 8.17256 51.1535 17.2201 51.664 19.9146H4.33164C4.83867 17.2201 6.54943 8.16917 7.17372 4.98931ZM48.8219 44.0266C48.2907 47.2031 47.5457 47.2031 45.8798 47.1997H10.1193C8.4568 47.1997 7.70489 47.1997 7.17717 44.0266L4.31785 26.8818H51.6847L48.8254 44.0266H48.8219ZM54.6785 25.5855H1.31711V23.3999C1.31711 22.1952 2.31391 21.2144 3.53835 21.2144H52.4573C53.6817 21.2144 54.6785 22.1952 54.6785 23.3999V25.5855Z" fill="#4D4D4D"/>
<path d="M11.6471 40.3708C12.0127 40.3708 12.3058 40.079 12.3058 39.7226V31.9138C12.3058 31.5541 12.0092 31.2656 11.6471 31.2656C11.2849 31.2656 10.9883 31.5575 10.9883 31.9138V39.7226C10.9883 40.0824 11.2849 40.3708 11.6471 40.3708Z" fill="#4D4D4D"/>
<path d="M17.0963 40.3708C17.4619 40.3708 17.7551 40.079 17.7551 39.7226V31.9138C17.7551 31.5541 17.4584 31.2656 17.0963 31.2656C16.7341 31.2656 16.4375 31.5575 16.4375 31.9138V39.7226C16.4375 40.0824 16.7341 40.3708 17.0963 40.3708Z" fill="#4D4D4D"/>
<path d="M22.5494 40.3708C22.915 40.3708 23.2082 40.079 23.2082 39.7226V31.9138C23.2082 31.5541 22.9116 31.2656 22.5494 31.2656C22.1872 31.2656 21.8906 31.5575 21.8906 31.9138V39.7226C21.8906 40.0824 22.1872 40.3708 22.5494 40.3708Z" fill="#4D4D4D"/>
<path d="M27.9986 40.3708C28.3642 40.3708 28.6574 40.079 28.6574 39.7226V31.9138C28.6574 31.5541 28.3608 31.2656 27.9986 31.2656C27.6365 31.2656 27.3398 31.5575 27.3398 31.9138V39.7226C27.3398 40.0824 27.6365 40.3708 27.9986 40.3708Z" fill="#4D4D4D"/>
<path d="M33.4478 40.3708C33.8135 40.3708 34.1066 40.079 34.1066 39.7226V31.9138C34.1066 31.5541 33.81 31.2656 33.4478 31.2656C33.0857 31.2656 32.7891 31.5575 32.7891 31.9138V39.7226C32.7891 40.0824 33.0857 40.3708 33.4478 40.3708Z" fill="#4D4D4D"/>
<path d="M38.901 40.3708C39.2666 40.3708 39.5598 40.079 39.5598 39.7226V31.9138C39.5598 31.5541 39.2631 31.2656 38.901 31.2656C38.5388 31.2656 38.2422 31.5575 38.2422 31.9138V39.7226C38.2422 40.0824 38.5388 40.3708 38.901 40.3708Z" fill="#4D4D4D"/>
<path d="M44.3502 40.3708C44.7158 40.3708 45.009 40.079 45.009 39.7226V31.9138C45.009 31.5541 44.7123 31.2656 44.3502 31.2656C43.988 31.2656 43.6914 31.5575 43.6914 31.9138V39.7226C43.6914 40.0824 43.988 40.3708 44.3502 40.3708Z" fill="#4D4D4D"/>
<path d="M11.6471 15.8825C12.0127 15.8825 12.3058 15.5907 12.3058 15.2344V7.42553C12.3058 7.06581 12.0092 6.77734 11.6471 6.77734C11.2849 6.77734 10.9883 7.0692 10.9883 7.42553V15.2344C10.9883 15.5941 11.2849 15.8825 11.6471 15.8825Z" fill="#4D4D4D"/>
<path d="M17.0963 15.8825C17.4619 15.8825 17.7551 15.5907 17.7551 15.2344V7.42553C17.7551 7.06581 17.4584 6.77734 17.0963 6.77734C16.7341 6.77734 16.4375 7.0692 16.4375 7.42553V15.2344C16.4375 15.5941 16.7341 15.8825 17.0963 15.8825Z" fill="#4D4D4D"/>
<path d="M22.5494 15.8825C22.915 15.8825 23.2082 15.5907 23.2082 15.2344V7.42553C23.2082 7.06581 22.9116 6.77734 22.5494 6.77734C22.1872 6.77734 21.8906 7.0692 21.8906 7.42553V15.2344C21.8906 15.5941 22.1872 15.8825 22.5494 15.8825Z" fill="#4D4D4D"/>
<path d="M27.9986 15.8825C28.3642 15.8825 28.6574 15.5907 28.6574 15.2344V7.42553C28.6574 7.06581 28.3608 6.77734 27.9986 6.77734C27.6365 6.77734 27.3398 7.0692 27.3398 7.42553V15.2344C27.3398 15.5941 27.6365 15.8825 27.9986 15.8825Z" fill="#4D4D4D"/>
<path d="M33.4478 15.8825C33.8135 15.8825 34.1066 15.5907 34.1066 15.2344V7.42553C34.1066 7.06581 33.81 6.77734 33.4478 6.77734C33.0857 6.77734 32.7891 7.0692 32.7891 7.42553V15.2344C32.7891 15.5941 33.0857 15.8825 33.4478 15.8825Z" fill="#4D4D4D"/>
<path d="M38.901 15.8825C39.2666 15.8825 39.5598 15.5907 39.5598 15.2344V7.42553C39.5598 7.06581 39.2631 6.77734 38.901 6.77734C38.5388 6.77734 38.2422 7.0692 38.2422 7.42553V15.2344C38.2422 15.5941 38.5388 15.8825 38.901 15.8825Z" fill="#4D4D4D"/>
<path d="M44.3502 15.8825C44.7158 15.8825 45.009 15.5907 45.009 15.2344V7.42553C45.009 7.06581 44.7123 6.77734 44.3502 6.77734C43.988 6.77734 43.6914 7.0692 43.6914 7.42553V15.2344C43.6914 15.5941 43.988 15.8825 44.3502 15.8825Z" fill="#4D4D4D"/>
</g>
<defs>
<clipPath id="clip0_2396_27201">
<rect width="56" height="48" fill="white" transform="translate(0 0.5)"/>
</clipPath>
</defs>
</svg>
