<svg width="80" height="80" viewBox="0 0 80 80" fill="none" xmlns="http://www.w3.org/2000/svg">
<path d="M16.921 34.4268C18.0139 33.8112 19.5148 33.034 20.9541 32.3029C20.1113 31.2679 19.6033 29.9444 19.6033 28.5054C19.6033 25.1849 22.3049 22.4801 25.63 22.4801C28.955 22.4801 31.6566 25.1811 31.6566 28.5054C31.6566 28.8901 31.6181 29.2633 31.5488 29.625C33.9233 26.7663 34.6699 22.1492 35.0432 19.8406C35.0702 19.6713 35.0432 19.0211 35.0047 18.8287C34.693 17.1204 35.1433 15.9777 36.3478 15.4275C37.5716 14.8696 39.0186 15.312 39.7152 16.4586C39.7306 16.4817 39.7422 16.5086 39.7537 16.5356C40.6388 18.8287 43.2866 25.0233 44.9067 26.116L44.9491 26.143C46.0651 26.9009 47.2389 26.9663 48.4665 26.3507C47.0657 25.0464 46.1844 23.188 46.1844 21.1296C46.1806 17.1973 49.3825 14 53.3156 14C57.2487 14 60.4467 17.1973 60.4467 21.1296C60.4467 23.1803 59.577 25.031 58.1838 26.3315C59.7155 27.1818 61.3511 28.0937 62.6288 28.8093C65.4343 30.3868 66 32.4107 66 35.1694C66 36.77 65.4689 47.1122 65.4458 47.5278C65.4458 49.0206 64.2413 50.2365 62.7635 50.2365C62.0977 50.2365 61.4896 49.9902 61.0201 49.5824V63.6491C61.0201 64.9458 59.9657 66 58.6687 66H47.9624C46.6655 66 45.611 64.9458 45.611 63.6491C45.611 62.6757 45.611 40.0712 45.6226 39.1208C45.5148 37.7357 44.4065 36.4391 42.8786 34.6499C41.5894 33.1417 40.0693 31.3603 38.6684 28.9748C37.5101 32.3337 35.8745 35.0155 34.5314 37.2163C33.1998 39.3979 32.1492 41.1216 32.1492 42.5182C32.1607 44.0957 32.1377 63.7607 32.1377 63.9608C32.1377 65.0843 31.2217 66 30.098 66H21.1696C20.0459 66 19.13 65.0843 19.13 63.9608V52.3719C18.6874 52.7182 18.1217 52.9336 17.529 52.9336C16.2321 52.9336 15.1776 51.8794 15.1622 50.5751C15.0776 49.9133 14 41.3101 14 39.9442C14 37.5549 14.4888 35.8004 16.9248 34.4306L16.921 34.4268ZM25.63 23.4266C22.8283 23.4266 20.5462 25.7082 20.5462 28.5092C20.5462 31.3102 22.8283 33.5919 25.63 33.5919C28.4316 33.5919 30.7137 31.3102 30.7137 28.5092C30.7137 25.7082 28.4316 23.4266 25.63 23.4266ZM59.5077 21.1296C59.5077 17.7168 56.7291 14.9388 53.3156 14.9388C49.902 14.9388 47.1234 17.7168 47.1234 21.1296C47.1234 24.5424 49.902 27.3203 53.3156 27.3203C56.7291 27.3203 59.5077 24.5424 59.5077 21.1296ZM53.3156 28.263C52.9731 28.263 52.6344 28.236 52.3034 28.1899L49.8943 37.6087L53.3156 41.5871L56.7368 37.6087L54.3277 28.1899C53.9967 28.236 53.6581 28.263 53.3156 28.263ZM43.5906 34.0343C45.18 35.8966 46.4384 37.3663 46.5616 39.067C46.5616 39.0824 46.5616 39.0977 46.5616 39.1131C46.5539 39.4325 46.55 55.2999 46.55 63.6453C46.55 64.4225 47.1812 65.0573 47.9624 65.0573H52.8461V54.0148C52.8461 53.7532 53.0577 53.5454 53.3156 53.5454C53.5734 53.5454 53.7851 53.757 53.7851 54.0148V65.0573H58.6687C59.4461 65.0573 60.0811 64.4263 60.0811 63.6453V38.0897C60.0811 37.828 60.2928 37.6203 60.5506 37.6203C60.8085 37.6203 61.0201 37.8319 61.0201 38.0897V47.5239C61.0201 48.4974 61.8014 49.2938 62.7635 49.2938C63.7256 49.2938 64.5068 48.5012 64.5068 47.5009C64.5107 47.3931 65.061 36.7469 65.061 35.1694C65.061 32.6877 64.5876 30.9871 62.1708 29.6327C60.8046 28.867 59.0228 27.8744 57.3988 26.974C56.7522 27.428 56.0287 27.7743 55.2475 27.9936L57.7066 37.6126C57.7451 37.7626 57.7066 37.9204 57.6066 38.0358L53.6696 42.6183C53.5811 42.7222 53.4503 42.7837 53.3117 42.7837C53.1732 42.7837 53.0462 42.7222 52.9538 42.6183L49.0169 38.0358C48.9168 37.9204 48.8783 37.7626 48.9168 37.6126L51.376 27.9936C50.6063 27.7782 49.8905 27.4357 49.2478 26.9894C47.8662 27.8128 46.1883 28.1322 44.4103 26.9202L44.3718 26.8932C42.2436 25.4581 39.2919 17.963 38.884 16.9126C38.426 16.197 37.5101 15.9276 36.7327 16.2816C36.1977 16.5279 35.6205 17.0165 35.9245 18.6594C37.4177 26.8201 40.9813 30.9909 43.5829 34.0343H43.5906ZM16.0935 50.4827C16.0935 50.502 16.0935 50.5212 16.0935 50.5404C16.0935 51.3407 16.7324 51.991 17.5213 51.991C18.3102 51.991 19.1223 51.3792 19.1223 50.5597V41.4871C19.1223 41.2255 19.3339 41.0177 19.5918 41.0177C19.8496 41.0177 20.0613 41.2293 20.0613 41.4871V63.9608C20.0613 64.5649 20.5539 65.0573 21.1581 65.0573H25.1528V55.9309C25.1528 55.6693 25.3644 55.4615 25.6223 55.4615C25.8801 55.4615 26.0918 55.6731 26.0918 55.9309V65.0573H30.0864C30.6906 65.0573 31.1832 64.5649 31.1832 63.9569C31.1832 63.7569 31.2102 44.0996 31.1948 42.5221C31.1948 40.8561 32.307 39.0323 33.7155 36.7238C35.1394 34.3922 36.8943 31.5103 38.0296 27.8474C37.1291 26.1391 36.3055 24.1461 35.659 21.7606C35.0702 24.8694 33.8541 29.4057 30.7561 31.6565C29.6939 33.3802 27.7928 34.5307 25.6223 34.5307C24.0906 34.5307 22.6936 33.9574 21.6276 33.0109C20.1229 33.7727 18.5219 34.5999 17.3751 35.2425C15.32 36.3967 14.9275 37.7819 14.9275 39.9365C14.9275 41.2716 16.0743 50.3865 16.0858 50.4789L16.0935 50.4827Z" fill="#FEFEFE"/>
</svg>
