<svg width="81" height="80" viewBox="0 0 81 80" fill="none" xmlns="http://www.w3.org/2000/svg">
<path d="M58.2988 14.333H22.0997C20.484 14.333 19.1719 15.6452 19.1719 17.2609V62.7385C19.1719 64.3542 20.484 65.6663 22.0997 65.6663H58.2988C59.9145 65.6663 61.2266 64.3542 61.2266 62.7385V17.2609C61.2266 15.6452 59.9145 14.333 58.2988 14.333ZM31.341 21.118H49.0576C49.3191 21.118 49.5339 20.9032 49.5339 20.6417V18.3536H49.6366C51.2149 18.3536 52.4944 19.6377 52.4944 21.2114C52.4944 22.7851 51.2103 24.0739 49.6366 24.0739H30.7619C29.1836 24.0739 27.9041 22.7897 27.9041 21.2114C27.9041 19.633 29.1882 18.3536 30.7619 18.3536H30.8647V20.6417C30.8647 20.9032 31.0795 21.118 31.341 21.118ZM48.5813 15.2856V20.1654H31.8173V15.2856H48.5813ZM60.274 62.7385C60.274 63.8265 59.3868 64.7137 58.2988 64.7137H22.0997C21.0117 64.7137 20.1245 63.8265 20.1245 62.7385V17.2609C20.1245 16.1728 21.0117 15.2856 22.0997 15.2856H30.8647V17.401H30.7619C28.6606 17.401 26.9468 19.11 26.9468 21.2161C26.9468 23.3221 28.6559 25.0311 30.7619 25.0311H49.6319C51.7333 25.0311 53.447 23.3221 53.447 21.2161C53.447 19.11 51.7379 17.401 49.6319 17.401H49.5292V15.2856H58.2941C59.3821 15.2856 60.2694 16.1728 60.2694 17.2609V62.7385H60.274Z" fill="#FEFEFE"/>
<path d="M32.0319 30.4573C31.8124 30.3079 31.5183 30.3686 31.3688 30.5834L28.8939 34.2491L26.419 30.5834C26.2743 30.3639 25.9754 30.3079 25.7559 30.4573C25.5364 30.6067 25.4804 30.9009 25.6298 31.1204L28.5017 35.3744C28.5904 35.5052 28.7398 35.5846 28.8986 35.5846C29.0574 35.5846 29.2068 35.5052 29.2955 35.3744L32.1673 31.1204C32.3168 30.9009 32.2561 30.6067 32.0413 30.4573H32.0319Z" fill="#FEFEFE"/>
<path d="M54.3759 32.5025H35.9449C35.6834 32.5025 35.4686 32.7173 35.4686 32.9788C35.4686 33.2403 35.6834 33.4551 35.9449 33.4551H54.3759C54.6375 33.4551 54.8523 33.2403 54.8523 32.9788C54.8523 32.7173 54.6375 32.5025 54.3759 32.5025Z" fill="#FEFEFE"/>
<path d="M32.0319 41.0155C31.8124 40.866 31.5183 40.9268 31.3688 41.1416L28.8939 44.8072L26.419 41.1416C26.2743 40.9221 25.9754 40.866 25.7559 41.0155C25.5364 41.1649 25.4804 41.4591 25.6298 41.6786L28.5017 45.9326C28.5904 46.0634 28.7398 46.1427 28.8986 46.1427C29.0574 46.1427 29.2068 46.0634 29.2955 45.9326L32.1673 41.6786C32.3168 41.4591 32.2561 41.1649 32.0413 41.0155H32.0319Z" fill="#FEFEFE"/>
<path d="M54.3759 43.0607H35.9449C35.6834 43.0607 35.4686 43.2755 35.4686 43.537C35.4686 43.7985 35.6834 44.0133 35.9449 44.0133H54.3759C54.6375 44.0133 54.8523 43.7985 54.8523 43.537C54.8523 43.2755 54.6375 43.0607 54.3759 43.0607Z" fill="#FEFEFE"/>
<path d="M32.0319 51.5686C31.8124 51.4191 31.5183 51.4798 31.3688 51.6946L28.8939 55.3603L26.419 51.6946C26.2743 51.4752 25.9754 51.4191 25.7559 51.5686C25.5364 51.718 25.4804 52.0122 25.6298 52.2316L28.5017 56.4857C28.5904 56.6164 28.7398 56.6958 28.8986 56.6958C29.0574 56.6958 29.2068 56.6164 29.2955 56.4857L32.1673 52.2316C32.3168 52.0122 32.2561 51.718 32.0413 51.5686H32.0319Z" fill="#FEFEFE"/>
<path d="M54.3759 53.6141H35.9449C35.6834 53.6141 35.4686 53.8289 35.4686 54.0904C35.4686 54.3519 35.6834 54.5667 35.9449 54.5667H54.3759C54.6375 54.5667 54.8523 54.3519 54.8523 54.0904C54.8523 53.8289 54.6375 53.6141 54.3759 53.6141Z" fill="#FEFEFE"/>
</svg>
