<svg width="81" height="80" viewBox="0 0 81 80" fill="none" xmlns="http://www.w3.org/2000/svg">
<path d="M72.8686 33.6139L54.0871 14.8325C53.9223 14.6676 53.6272 14.6676 53.4624 14.8325L45.0413 23.2535C44.8678 23.4271 44.8678 23.7047 45.0413 23.8783L47.4752 26.3122L41.7007 26.3035C39.7266 25.5052 38.6073 25.5052 37.7092 25.5096C36.7764 25.5096 36.117 25.5096 34.7981 24.4857L35.7699 23.5139C35.8523 23.4314 35.9001 23.3186 35.9001 23.2015C35.9001 23.0843 35.8523 22.9715 35.7699 22.8891L27.3488 14.468C27.1753 14.2945 26.8976 14.2945 26.7241 14.468L7.94266 33.2495C7.76911 33.423 7.76911 33.7007 7.94266 33.8742L16.3637 42.2953C16.4461 42.3777 16.5589 42.4254 16.6761 42.4254C16.7932 42.4254 16.906 42.3777 16.9885 42.2953L18.2553 41.0285C18.6501 42.5469 19.366 43.432 19.418 43.4927C19.4267 43.5014 19.4354 43.5101 19.4397 43.5188L22.6502 46.7857L21.9778 47.4581C20.7543 48.6773 20.75 50.66 21.9647 51.8791C22.5765 52.4908 23.3791 52.7988 24.1861 52.7988C24.4464 52.7988 24.7023 52.7641 24.9583 52.6991C24.698 53.7316 24.9583 54.8683 25.7653 55.6753C26.3553 56.2653 27.1406 56.595 27.9779 56.595H27.9866C28.2513 56.595 28.5072 56.5603 28.7545 56.4953C28.4942 57.5278 28.7589 58.6645 29.5615 59.4715C30.1732 60.0832 30.9758 60.3913 31.7828 60.3913C32.0431 60.3913 32.2991 60.3565 32.5507 60.2915C32.49 60.5388 32.4509 60.7947 32.4509 61.055C32.4509 61.888 32.772 62.6777 33.362 63.2677C33.9521 63.8621 34.7373 64.1875 35.5747 64.1875H35.5833C36.4163 64.1875 37.2016 63.8621 37.7917 63.2764L38.9457 62.1223L41.4924 64.669C42.1562 65.3328 43.0239 65.6625 43.8959 65.6625C44.768 65.6625 45.6357 65.3328 46.2995 64.669C47.1932 63.7753 47.4839 62.4998 47.1672 61.3587C47.4622 61.4412 47.7702 61.4846 48.0739 61.4846C48.946 61.4846 49.8137 61.1548 50.4775 60.491C51.3712 59.5973 51.6619 58.3218 51.3452 57.1807C51.6402 57.2632 51.9482 57.3066 52.2519 57.3066C53.124 57.3066 53.9917 56.9768 54.6555 56.313C55.5492 55.4193 55.8399 54.1438 55.5232 53.0028C55.8139 53.0852 56.1219 53.1286 56.4299 53.1286C57.3367 53.1286 58.1914 52.7772 58.8335 52.1351C60.1567 50.8118 60.1567 48.6512 58.8335 47.328L58.1003 46.5948C58.3909 46.2477 58.8552 45.6837 59.1936 45.2195C60.8248 42.9634 61.2717 41.2757 61.3281 40.1738L63.8141 42.6597C63.9008 42.7465 64.0136 42.7899 64.1264 42.7899C64.2393 42.7899 64.3521 42.7465 64.4388 42.6597L72.8599 34.2387C72.9423 34.1562 72.99 34.0434 72.99 33.9263C72.99 33.8092 72.9423 33.6964 72.8599 33.6139H72.8686ZM16.6761 41.3582L8.87978 33.5619L27.0365 15.4052L34.8328 23.2015L16.6761 41.3582ZM22.5938 51.2587C21.7218 50.3866 21.7261 48.9636 22.6025 48.0872L25.1666 45.5231C25.6048 45.0893 26.1774 44.868 26.7501 44.868C27.3228 44.868 27.9042 45.0893 28.338 45.5275C29.2101 46.4039 29.2057 47.8269 28.3293 48.6989L25.7653 51.263C24.8889 52.1351 23.4659 52.1307 22.5895 51.2543L22.5938 51.2587ZM27.9779 55.7143C27.3792 55.7143 26.8152 55.48 26.39 55.0549C25.518 54.1828 25.5223 52.7598 26.3987 51.8878L28.9628 49.3237C29.401 48.8898 29.9736 48.6686 30.5463 48.6686C31.119 48.6686 31.7004 48.8898 32.1342 49.328C33.0063 50.2044 33.0019 51.6274 32.1255 52.4995L29.5615 55.0636C29.1406 55.4844 28.5766 55.7187 27.9779 55.7187H27.9736L27.9779 55.7143ZM30.1906 58.8554C29.3185 57.9834 29.3229 56.5603 30.2036 55.6883L32.7676 53.1242C33.1928 52.7034 33.7525 52.4691 34.3512 52.4691C34.9499 52.4691 35.5139 52.7034 35.9348 53.1286C36.3556 53.5537 36.5899 54.1178 36.5899 54.7165C36.5899 55.3152 36.3556 55.8792 35.9261 56.3L33.362 58.8641C32.4856 59.7361 31.0626 59.7318 30.1862 58.8554H30.1906ZM37.1669 62.6603C36.7417 63.0811 36.1821 63.3154 35.5833 63.3154H35.579C34.9803 63.3154 34.4163 63.0811 33.9911 62.656C33.1191 61.7839 33.1234 60.3609 34.0041 59.4845L36.5682 56.9204C36.9934 56.4996 37.553 56.2653 38.1517 56.2653C38.7505 56.2653 39.3145 56.4996 39.7353 56.9248C40.6073 57.8012 40.603 59.2242 39.7266 60.0962L37.1626 62.6603H37.1669ZM58.2131 51.506C57.7402 51.9789 57.1067 52.2435 56.4343 52.2435C55.7618 52.2435 55.1327 51.9832 54.6555 51.506L52.4341 49.2846C52.2606 49.1111 51.9829 49.1111 51.8094 49.2846C51.6359 49.4582 51.6359 49.7359 51.8094 49.9094L54.0307 52.1307C55.0112 53.1112 55.0112 54.7035 54.0307 55.684C53.0502 56.6645 51.458 56.6645 50.4775 55.684L48.2562 53.4626C48.0826 53.2891 47.8049 53.2891 47.6314 53.4626C47.4579 53.6362 47.4579 53.9138 47.6314 54.0874L49.8527 56.3087C50.8332 57.2892 50.8332 58.8814 49.8527 59.8619C48.8722 60.8425 47.28 60.8425 46.2995 59.8619L44.0782 57.6406C43.9046 57.4671 43.627 57.4671 43.4534 57.6406C43.2799 57.8142 43.2799 58.0918 43.4534 58.2654L45.6747 60.4867C46.6552 61.4672 46.6552 63.0594 45.6747 64.0399C44.6942 65.0204 43.102 65.0204 42.1215 64.0399L39.5748 61.4932L40.3601 60.708C41.5835 59.4888 41.5879 57.5061 40.3687 56.2827C39.7787 55.6926 38.9934 55.3629 38.1561 55.3629H38.1517C37.8871 55.3629 37.6311 55.3976 37.3838 55.4627C37.4446 55.2154 37.4836 54.9594 37.4836 54.6991C37.4836 53.8618 37.1626 53.0765 36.5725 52.4865C35.9825 51.8921 35.1972 51.5667 34.3599 51.5667H34.3555C34.0909 51.5667 33.8349 51.6014 33.5833 51.6665C33.8436 50.6339 33.579 49.4972 32.772 48.6903C32.1819 48.1002 31.3967 47.7705 30.5593 47.7705H30.555C30.2904 47.7705 30.0344 47.8052 29.7827 47.8703C30.0431 46.8377 29.7784 45.701 28.9714 44.8941C27.7523 43.6706 25.7696 43.6663 24.5462 44.8854L23.2793 46.1522L20.0905 42.907C19.9864 42.7769 19.2792 41.8441 18.9972 40.2822L34.169 25.1191C35.6701 26.3035 36.5161 26.399 37.6441 26.399C37.6658 26.399 37.6875 26.399 37.7092 26.399C38.4164 26.399 39.206 26.399 40.4729 26.8025L33.2666 30.2212C33.028 30.3036 31.6006 30.8373 30.9845 32.1345C29.8739 34.0695 27.2707 38.5945 26.8412 39.2974C26.5072 39.844 26.4161 40.3386 26.5809 40.7595C26.685 41.0371 26.954 41.4059 27.6265 41.6055C29.2621 42.0914 32.4076 42.4819 35.0931 39.6141C35.1061 39.5967 35.1235 39.5794 35.1365 39.562C35.8957 38.4557 36.8285 37.0978 37.1582 36.6249L41.7614 36.2431C42.3818 36.9069 44.742 39.2106 47.6835 39.2106C48.1911 39.2106 48.7117 39.1412 49.2453 38.985L58.2131 47.9527C59.1936 48.9332 59.1936 50.5255 58.2131 51.506ZM58.4864 44.6988C58.187 45.111 57.7662 45.6273 57.4798 45.9657L50.1477 38.6336C50.4471 38.4904 50.7465 38.3169 51.0502 38.113C51.2541 37.9741 51.3061 37.7008 51.1673 37.4969C51.0285 37.293 50.7551 37.2409 50.5512 37.3798C46.3342 40.2562 42.4425 35.6921 42.282 35.4968C42.1909 35.384 42.0434 35.3276 41.9046 35.3407L36.8762 35.7571C36.7417 35.7702 36.6246 35.8396 36.5465 35.948C36.5465 35.948 35.3621 37.6704 34.425 39.0284C32.0691 41.5187 29.3185 41.176 27.8825 40.7508C27.735 40.7074 27.4747 40.6076 27.4096 40.4341C27.3532 40.2866 27.4183 40.0436 27.6005 39.7486C28.0343 39.0371 30.6548 34.4773 31.7655 32.551C31.7698 32.5423 31.7785 32.5293 31.7828 32.5206C32.2731 31.4794 33.5616 31.0542 33.5703 31.0499C33.5876 31.0455 33.6093 31.0368 33.6267 31.0282L41.718 27.1886L48.3646 27.2016L60.3693 39.2063C60.6556 40.1781 60.3302 42.1521 58.4864 44.6988ZM64.1351 41.7226L45.9784 23.5659L53.7747 15.7739L71.9314 33.9306L64.1351 41.7269V41.7226Z" fill="#FEFEFE"/>
<path d="M16.4375 32.9501C16.1729 32.9154 15.9126 32.9848 15.7043 33.1454C15.4918 33.3059 15.3573 33.5402 15.3226 33.8005C15.2878 34.0651 15.3573 34.3254 15.5178 34.5337C15.6783 34.7463 15.9126 34.8808 16.1729 34.9155C16.2163 34.9198 16.264 34.9242 16.3074 34.9242C16.7976 34.9242 17.2228 34.5641 17.2922 34.0651C17.366 33.5228 16.9842 33.0239 16.4419 32.9501H16.4375Z" fill="#FEFEFE"/>
</svg>
