<svg width="81" height="80" viewBox="0 0 81 80" fill="none" xmlns="http://www.w3.org/2000/svg">
<path d="M57.6932 55.2322C55.7576 55.2322 54.1839 56.8059 54.1839 58.7415C54.1839 60.6771 55.7576 62.2508 57.6932 62.2508C59.6288 62.2508 61.2025 60.6771 61.2025 58.7415C61.2025 56.8059 59.6288 55.2322 57.6932 55.2322ZM57.6932 61.3882C56.2331 61.3882 55.0423 60.2016 55.0423 58.7373C55.0423 57.273 56.2289 56.0864 57.6932 56.0864C59.1575 56.0864 60.3441 57.273 60.3441 58.7373C60.3441 60.2016 59.1575 61.3882 57.6932 61.3882Z" fill="#FEFEFE"/>
<path d="M50.5484 57.8073C50.035 57.8073 49.6143 58.2281 49.6143 58.7415C49.6143 59.2548 50.0308 59.6756 50.5484 59.6756C51.0659 59.6756 51.4825 59.2548 51.4825 58.7415C51.4825 58.2281 51.0659 57.8073 50.5484 57.8073Z" fill="#FEFEFE"/>
<path d="M45.5748 57.8073C45.0615 57.8073 44.6407 58.2281 44.6407 58.7415C44.6407 59.2548 45.0573 59.6756 45.5748 59.6756C46.0924 59.6756 46.509 59.2548 46.509 58.7415C46.509 58.2281 46.0924 57.8073 45.5748 57.8073Z" fill="#FEFEFE"/>
<path d="M40.6011 57.8073C40.0877 57.8073 39.667 58.2281 39.667 58.7415C39.667 59.2548 40.0877 59.6756 40.6011 59.6756C41.1144 59.6756 41.5352 59.2548 41.5352 58.7415C41.5352 58.2281 41.1187 57.8073 40.6011 57.8073Z" fill="#FEFEFE"/>
<path d="M35.6317 57.8073C35.1183 57.8073 34.6975 58.2281 34.6975 58.7415C34.6975 59.2548 35.1141 59.6756 35.6317 59.6756C36.1492 59.6756 36.5658 59.2548 36.5658 58.7415C36.5658 58.2281 36.1492 57.8073 35.6317 57.8073Z" fill="#FEFEFE"/>
<path d="M30.6581 57.8073C30.1448 57.8073 29.724 58.2281 29.724 58.7415C29.724 59.2548 30.1406 59.6756 30.6581 59.6756C31.1757 59.6756 31.5922 59.2548 31.5922 58.7415C31.5922 58.2281 31.1757 57.8073 30.6581 57.8073Z" fill="#FEFEFE"/>
<path d="M25.6887 57.8073C25.1753 57.8073 24.7546 58.2281 24.7546 58.7415C24.7546 59.2548 25.1711 59.6756 25.6887 59.6756C26.2062 59.6756 26.6228 59.259 26.6228 58.7415C26.6228 58.2239 26.2062 57.8073 25.6887 57.8073Z" fill="#FEFEFE"/>
<path d="M20.7151 57.8073C20.2018 57.8073 19.781 58.2281 19.781 58.7415C19.781 59.2548 20.1976 59.6756 20.7151 59.6756C21.2327 59.6756 21.6493 59.259 21.6493 58.7415C21.6493 58.2239 21.2327 57.8073 20.7151 57.8073Z" fill="#FEFEFE"/>
<path d="M57.6932 51.4789H48.1667V47.9822C50.4095 47.4899 52.7575 46.703 54.4532 44.9904C55.7492 43.6776 56.6244 42.146 56.9737 40.5512C57.3692 38.7587 57.0831 36.7389 56.0984 34.3742C53.8052 28.8661 50.2286 27.0947 46.6183 26.1521C47.5903 24.8772 48.1667 23.2908 48.1667 21.5698C48.1667 17.3957 44.7711 14 40.5969 14C36.4228 14 33.0271 17.3957 33.0271 21.5698C33.0271 23.2908 33.6036 24.8814 34.5756 26.1521C30.9653 27.0947 27.3886 28.8704 25.0954 34.3742C24.1108 36.7389 23.8246 38.7587 24.2202 40.5512C24.5736 42.1418 25.4446 43.6776 26.7406 44.9904C28.4364 46.7072 30.7843 47.4899 33.0271 47.9822V51.4789H16.6714C16.4357 51.4789 16.2422 51.6724 16.2422 51.9081V65.5708C16.2422 65.6844 16.2885 65.7938 16.3684 65.8737C16.4484 65.9537 16.5578 66 16.6714 66H57.6932C61.699 66 64.9559 62.7431 64.9559 58.7373C64.9559 54.7315 61.699 51.4747 57.6932 51.4747V51.4789ZM40.5969 14.85C44.2998 14.85 47.3084 17.8628 47.3084 21.5614C47.3084 25.2601 44.2956 28.2728 40.5969 28.2728C36.8983 28.2728 33.8855 25.2601 33.8855 21.5614C33.8855 17.8628 36.8983 14.85 40.5969 14.85ZM25.0617 40.3619C24.7041 38.7461 24.9734 36.8946 25.8907 34.6982C28.2344 29.0681 31.9078 27.6711 35.2067 26.8717C36.5827 28.2686 38.4888 29.1354 40.5969 29.1354C42.705 29.1354 44.6154 28.2686 45.9871 26.8717C49.2902 27.6711 52.9594 29.0681 55.3032 34.6982C56.2163 36.8946 56.4898 38.7461 56.1321 40.3619C55.8165 41.7967 55.0212 43.1853 53.8389 44.3803C51.7181 46.5221 48.3519 47.1112 45.6505 47.5824C45.0404 47.6876 44.2745 47.5614 43.9716 46.8797C43.8285 46.5557 43.8201 46.1981 43.9463 45.8699C44.0683 45.5501 44.3082 45.2934 44.6196 45.1503C45.154 44.9862 51.1248 43.0843 50.9481 38.9817C50.8892 37.5721 50.3716 36.7558 48.7937 34.6014C48.6549 34.412 48.3856 34.3699 48.192 34.5088C48.0026 34.6477 47.9606 34.917 48.0994 35.1105C49.7447 37.3575 50.0434 37.9424 50.0897 39.0238C50.1486 40.4334 49.2566 41.5611 48.1625 42.4068V38.3253C48.1625 38.0896 47.969 37.8961 47.7333 37.8961H33.4605C33.2249 37.8961 33.0313 38.0896 33.0313 38.3253V42.4068C31.9331 41.5569 31.041 40.4334 31.1041 39.0238C31.1504 37.9466 31.4492 37.3617 33.0944 35.1105C33.2333 34.9212 33.1912 34.6519 33.0018 34.5088C32.8125 34.3699 32.5432 34.412 32.4001 34.6014C30.8222 36.7558 30.3046 37.5721 30.2457 38.9817C30.069 43.0843 36.0357 44.9862 36.5743 45.1503C36.8856 45.2934 37.1255 45.5501 37.2475 45.8699C37.3737 46.1981 37.3653 46.5557 37.2223 46.8797C36.9193 47.5614 36.1577 47.6918 35.5434 47.5824C32.8377 47.1112 29.4757 46.5221 27.355 44.3803C26.1726 43.1853 25.3773 41.7967 25.0617 40.3619ZM33.8897 48.1589C34.403 48.2599 34.9122 48.3483 35.3961 48.4324C35.577 48.4661 35.758 48.4787 35.9305 48.4787C36.873 48.4787 37.6599 48.02 38.0091 47.229C38.2448 46.6988 38.2574 46.1055 38.0512 45.5627C37.8408 45.0199 37.4327 44.5907 36.9025 44.3551C36.8856 44.3466 36.8688 44.3424 36.852 44.334C36.8225 44.3256 35.3456 43.8796 33.8981 42.9917V38.7503H47.3126V42.9917C45.8651 43.8796 44.3881 44.3256 44.3587 44.334C44.3419 44.3382 44.325 44.3466 44.3082 44.3551C43.778 44.5907 43.3699 45.0199 43.1595 45.5627C42.9491 46.1055 42.9659 46.6988 43.2015 47.229C43.5508 48.02 44.3377 48.4787 45.2802 48.4787C45.4527 48.4787 45.6294 48.4619 45.8146 48.4324C46.2985 48.3483 46.8034 48.2599 47.321 48.1589V51.4789H33.9065V48.1589H33.8897ZM57.6932 65.1416H17.1006V52.3372H57.6932C61.2235 52.3372 64.0975 55.2112 64.0975 58.7415C64.0975 62.2719 61.2235 65.1458 57.6932 65.1458V65.1416Z" fill="#FEFEFE"/>
</svg>
