<svg width="81" height="80" viewBox="0 0 81 80" fill="none" xmlns="http://www.w3.org/2000/svg">
<path d="M66.2692 57.9157L61.9014 55.1422C61.7851 55.0704 61.6429 55.0535 61.5137 55.0999L52.2222 58.4138C51.6493 57.2023 50.6371 56.2735 49.362 55.7965C48.311 55.4039 47.1867 55.3575 46.1227 55.6487L41.393 42.9167C41.6127 42.7183 41.7936 42.4861 41.9056 42.2244C42.3234 41.2746 41.7721 39.8477 40.7986 39.3453L39.8767 38.8472L37.6325 32.802C37.5507 32.5783 37.2965 32.4643 37.0682 32.5445C36.8399 32.6247 36.7236 32.8738 36.8054 33.0975L38.7051 38.2098L34.1132 35.7191L32.1403 27.3774C35.2676 26.8202 37.6454 24.1311 37.6454 20.9101C37.6454 17.2838 34.6344 14.333 30.9342 14.333C27.234 14.333 24.223 17.2838 24.223 20.9101C24.223 22.0288 24.5116 23.0842 25.0156 24.0044C24.4039 24.549 23.7578 25.2118 23.1246 26.0308C20.9493 28.8338 18.537 33.9925 19.3986 42.6339C19.6699 45.3314 20.4841 51.8156 20.6176 52.8879L15.526 60.9678C15.526 60.9678 15.5174 60.9847 15.5088 60.9932C14.6731 62.5467 15.2848 64.4801 16.8743 65.2991C17.3395 65.5397 17.8651 65.6663 18.3863 65.6663C19.5924 65.6663 20.6951 65.0205 21.2594 63.9735L27.0273 54.6736C27.0273 54.6736 27.0359 54.6567 27.0402 54.6483C27.2556 54.2472 27.3805 53.8124 27.4063 53.3565C27.4236 53.1116 27.8715 50.3972 28.2635 48.0796L31.4598 53.766L30.7748 61.7024C30.3441 63.391 31.3822 65.1133 33.1009 65.5566C33.3723 65.6283 33.6523 65.6621 33.928 65.6621C35.4012 65.6621 36.6935 64.6827 37.0725 63.2854C37.0768 63.2643 37.0811 63.2432 37.0854 63.2221L38.1063 53.939C38.7094 51.4484 37.4731 49.1814 36.0387 46.5599C35.2547 45.1246 34.3932 43.5415 33.7169 41.7136L39.2306 43.4908C39.3943 43.5499 39.5752 43.5753 39.7561 43.5753C40.0447 43.5753 40.342 43.5077 40.6306 43.3895L45.2914 55.94C44.0637 56.5015 43.116 57.4893 42.6336 58.7389C42.1382 60.0138 42.177 61.3984 42.7413 62.6438C43.6071 64.5392 45.5111 65.6663 47.5055 65.6663C48.2162 65.6663 48.9356 65.5228 49.6205 65.2231C51.9939 64.1846 53.1785 61.6095 52.5152 59.2243L61.5998 55.9822L65.7868 58.6376C65.9893 58.7684 66.2649 58.7093 66.3942 58.5109C66.5277 58.3125 66.4674 58.0465 66.2649 57.9157H66.2692ZM30.9428 15.1942C34.1563 15.1942 36.771 17.7566 36.771 20.9059C36.771 24.0551 34.1563 26.6175 30.9428 26.6175C27.7294 26.6175 25.1147 24.0551 25.1147 20.9059C25.1147 17.7566 27.7294 15.1942 30.9428 15.1942ZM39.5192 42.6719L30.9644 39.9152C30.6069 39.7928 30.3182 39.5395 30.1546 39.2018L25.847 30.514C25.7393 30.2987 25.4765 30.21 25.2612 30.3156C25.0415 30.4211 24.951 30.6786 25.0587 30.8897L29.3663 39.5733C29.6333 40.1179 30.0986 40.5274 30.6887 40.73L32.6788 41.3717C33.4025 43.5162 34.3846 45.3314 35.2763 46.9651C36.6848 49.5445 37.7962 51.5834 37.2577 53.7617C37.2534 53.7786 37.2491 53.7997 37.2491 53.8166L36.2282 63.0912C35.9439 64.0959 35.0092 64.7967 33.9452 64.7967C33.7428 64.7967 33.5403 64.7714 33.3379 64.7207C32.0714 64.3957 31.3133 63.1208 31.645 61.8797C31.6493 61.8543 31.6579 61.829 31.6579 61.8079L32.36 53.7069C32.3687 53.6224 32.3471 53.538 32.3083 53.462L28.4358 46.5768C28.3454 46.4163 28.1602 46.3277 27.9749 46.3615C27.7897 46.391 27.6476 46.5345 27.6174 46.7161C27.5097 47.3493 26.5663 52.909 26.5448 53.3058C26.5233 53.6351 26.4371 53.9475 26.2821 54.2388L20.5142 63.5387C20.5142 63.5387 20.5056 63.5556 20.5013 63.5598C20.0878 64.3281 19.2822 64.8009 18.3992 64.8009C18.0115 64.8009 17.6411 64.7123 17.2965 64.535C16.142 63.9398 15.694 62.5382 16.2928 61.4069L21.4662 53.2129C21.5179 53.1285 21.5394 53.0314 21.5265 52.9343C21.5179 52.8583 20.5831 45.4707 20.2902 42.5537C19.4545 34.2247 21.7419 29.2813 23.8052 26.6007C24.3738 25.8619 24.9553 25.254 25.511 24.7516C26.73 26.4065 28.7158 27.4872 30.9515 27.4872C31.0591 27.4872 31.1668 27.4872 31.2745 27.4787L33.312 36.1032C33.3422 36.2214 33.4197 36.3228 33.5274 36.3819L40.3937 40.1052C40.9623 40.3965 41.3456 41.3463 41.1087 41.8825C40.8718 42.427 40.0318 42.8492 39.5278 42.6761L39.5192 42.6719ZM49.2673 64.4337C47.0876 65.3877 44.5246 64.4252 43.5511 62.2934C43.0816 61.2591 43.0471 60.1066 43.4606 59.047C43.8742 57.9874 44.684 57.1516 45.7394 56.6915C46.7947 56.2313 47.9707 56.1975 49.0519 56.6028C50.1331 57.0081 50.986 57.8017 51.4555 58.836C52.429 60.972 51.4469 63.4838 49.2716 64.4379L49.2673 64.4337Z" fill="#FEFEFE"/>
<path d="M44.7315 43.5457C44.7702 43.6513 44.8521 43.7399 44.9598 43.7906C45.0201 43.8159 45.0804 43.8328 45.145 43.8328C45.1967 43.8328 45.2484 43.8243 45.2957 43.8075L58.8603 38.9696C59.0886 38.8894 59.2049 38.6404 59.1231 38.4166L55.8148 29.5093C55.7761 29.4037 55.6942 29.3151 55.5865 29.2644C55.4832 29.218 55.3582 29.2095 55.2505 29.2518L41.686 34.0896C41.4577 34.1698 41.3414 34.4189 41.4232 34.6426L44.7315 43.5499V43.5457ZM55.1385 30.2016L58.1452 38.2984L45.4077 42.8407L42.4011 34.7439L55.1385 30.2016Z" fill="#FEFEFE"/>
<path d="M46.028 47.0369L48.1129 52.6557C48.1947 52.8794 48.4489 52.9934 48.6772 52.9132C48.9055 52.833 49.0218 52.5839 48.9399 52.3602L47.0058 47.1466L59.7433 42.6043L62.75 50.7011L52.9632 54.1923C52.7349 54.2725 52.6186 54.5216 52.7004 54.7453C52.7651 54.9184 52.9331 55.0281 53.114 55.0281C53.1657 55.0281 53.213 55.0197 53.2647 55.0028L63.4651 51.3639C63.5728 51.3259 63.6632 51.2457 63.7149 51.1402C63.7623 51.0388 63.7709 50.9164 63.7278 50.8109L60.4196 41.9035C60.3378 41.6798 60.0836 41.5658 59.8553 41.646L46.2908 46.4838C46.0625 46.5641 45.9462 46.8131 46.028 47.0369Z" fill="#FEFEFE"/>
</svg>
