<svg width="53" height="53" viewBox="0 0 53 53" fill="none" xmlns="http://www.w3.org/2000/svg">
<g clip-path="url(#clip0_3815_9096)">
<path d="M28.7062 37.4545H30.0893C30.4213 37.4545 30.6905 37.1853 30.6905 36.8533C30.6905 36.5214 30.4213 36.2521 30.0893 36.2521H28.2674L21.1454 16.6862C21.4921 15.9744 21.6913 15.1814 21.6913 14.3368V8.90041C21.6913 8.56848 21.422 8.29924 21.0901 8.29924H19.0505V1.09617C19.0505 0.764234 18.7813 0.494995 18.4494 0.494995H14.171C13.8391 0.494995 13.5699 0.764234 13.5699 1.09617V8.29924H11.5303C11.1983 8.29924 10.9291 8.56848 10.9291 8.90041V14.3368C10.9291 15.1814 11.1283 15.9744 11.475 16.6862L4.35303 36.2521H2.53106C2.19912 36.2521 1.92988 36.5214 1.92988 36.8533C1.92988 37.1853 2.19912 37.4545 2.53106 37.4545H3.91414L0.661138 46.3984C0.41034 47.0881 0.443534 47.8294 0.753343 48.4933C0.974636 48.9691 1.32502 49.3637 1.75654 49.6403L1.01152 51.6873C0.897183 52.0008 1.05946 52.3438 1.36927 52.4581C1.43566 52.4839 1.50574 52.495 1.57581 52.495C1.82292 52.495 2.05159 52.3438 2.14011 52.1004L2.88513 50.0534C3.00315 50.0681 3.11748 50.0792 3.23551 50.0792C3.63014 50.0792 4.02478 49.9944 4.38991 49.821C5.05379 49.5112 5.55539 48.9617 5.80618 48.2757L9.74519 37.4582H15.7053V38.5056C15.7053 38.8376 15.9746 39.1068 16.3065 39.1068C16.6384 39.1068 16.9077 38.8376 16.9077 38.5056V37.4582H22.8678L26.8068 48.2757C27.0576 48.9654 27.5592 49.5112 28.2231 49.821C28.5919 49.9944 28.9829 50.0792 29.3812 50.0792C29.4992 50.0792 29.6135 50.0681 29.7316 50.0534L30.4766 52.1004C30.5651 52.3438 30.7975 52.495 31.0409 52.495C31.111 52.495 31.1773 52.4839 31.2474 52.4581C31.5609 52.3438 31.7195 52.0008 31.6052 51.6873L30.8602 49.6403C31.2954 49.3637 31.6421 48.9691 31.8634 48.4933C32.1732 47.8294 32.2064 47.0844 31.9556 46.3984L28.6989 37.4545H28.7062ZM14.7759 1.69735H17.8519V8.29924H14.7759V1.69735ZM12.1315 9.50159H20.4889V14.3368C20.4889 16.642 18.6153 18.5156 16.3102 18.5156C14.0051 18.5156 12.1315 16.642 12.1315 14.3368V9.50159ZM4.68128 47.8589C4.54113 48.2462 4.25714 48.5523 3.88463 48.7256C3.51212 48.899 3.09535 48.9174 2.70809 48.7773C2.32083 48.6371 2.01471 48.3531 1.84136 47.9843C1.66802 47.6118 1.64958 47.195 1.78973 46.8078L12.3048 17.9181C13.0056 18.7037 13.935 19.279 14.9861 19.5446L4.68128 47.8589ZM16.9151 36.2521V35.2047C16.9151 34.8727 16.6458 34.6035 16.3139 34.6035C15.9819 34.6035 15.7127 34.8727 15.7127 35.2047V36.2521H10.1915L16.2106 19.7142C16.2475 19.7142 16.2807 19.7179 16.3176 19.7179C16.3545 19.7179 16.3876 19.7142 16.4245 19.7142L22.4437 36.2521H16.9224H16.9151ZM30.779 47.9843C30.6057 48.3568 30.2959 48.6371 29.9123 48.7773C29.525 48.9174 29.1083 48.899 28.7358 48.7256C28.3632 48.5523 28.0829 48.2425 27.9391 47.8589L17.6343 19.5446C18.6854 19.2753 19.6111 18.7 20.3156 17.9181L30.8307 46.8078C30.9708 47.195 30.9524 47.6118 30.779 47.9843Z" fill="#FFFDF5"/>
<path d="M16.3139 15.4728C16.9413 15.4728 17.4499 14.9642 17.4499 14.3368C17.4499 13.7095 16.9413 13.2009 16.3139 13.2009C15.6866 13.2009 15.178 13.7095 15.178 14.3368C15.178 14.9642 15.6866 15.4728 16.3139 15.4728Z" fill="#FFFDF5"/>
<path d="M51.8938 0.494995H48.3495C48.0175 0.494995 47.7483 0.764234 47.7483 1.09617V50.8242C47.7483 51.1562 48.0175 51.4254 48.3495 51.4254H51.8938C52.2258 51.4254 52.495 51.1562 52.495 50.8242V1.09617C52.495 0.764234 52.2258 0.494995 51.8938 0.494995ZM51.2927 50.2231H48.9506V1.69735H51.2927V50.2231Z" fill="#FFFDF5"/>
<path d="M44.3258 0.494995H41.7071C41.3752 0.494995 41.106 0.764234 41.106 1.09617C41.106 1.42811 41.3752 1.69735 41.7071 1.69735H44.3258C44.6577 1.69735 44.9269 1.42811 44.9269 1.09617C44.9269 0.764234 44.6577 0.494995 44.3258 0.494995Z" fill="#FFFDF5"/>
<path d="M38.244 0.494995H35.6253C35.2934 0.494995 35.0242 0.764234 35.0242 1.09617C35.0242 1.42811 35.2934 1.69735 35.6253 1.69735H38.244C38.5759 1.69735 38.8451 1.42811 38.8451 1.09617C38.8451 0.764234 38.5759 0.494995 38.244 0.494995Z" fill="#FFFDF5"/>
<path d="M32.1619 0.494995H29.5433C29.2114 0.494995 28.9421 0.764234 28.9421 1.09617C28.9421 1.42811 29.2114 1.69735 29.5433 1.69735H32.1619C32.4939 1.69735 32.7631 1.42811 32.7631 1.09617C32.7631 0.764234 32.4939 0.494995 32.1619 0.494995Z" fill="#FFFDF5"/>
<path d="M23.4615 1.69735H26.0802C26.4121 1.69735 26.6813 1.42811 26.6813 1.09617C26.6813 0.764234 26.4121 0.494995 26.0802 0.494995H23.4615C23.1296 0.494995 22.8604 0.764234 22.8604 1.09617C22.8604 1.42811 23.1296 1.69735 23.4615 1.69735Z" fill="#FFFDF5"/>
<path d="M44.3258 25.3609H41.7071C41.3752 25.3609 41.106 25.6301 41.106 25.9621C41.106 26.294 41.3752 26.5633 41.7071 26.5633H44.3258C44.6577 26.5633 44.9269 26.294 44.9269 25.9621C44.9269 25.6301 44.6577 25.3609 44.3258 25.3609Z" fill="#FFFDF5"/>
<path d="M38.244 25.3609H35.6253C35.2934 25.3609 35.0242 25.6301 35.0242 25.9621C35.0242 26.294 35.2934 26.5633 35.6253 26.5633H38.244C38.5759 26.5633 38.8451 26.294 38.8451 25.9621C38.8451 25.6301 38.5759 25.3609 38.244 25.3609Z" fill="#FFFDF5"/>
<path d="M32.1619 25.3609H29.5433C29.2114 25.3609 28.9421 25.6301 28.9421 25.9621C28.9421 26.294 29.2114 26.5633 29.5433 26.5633H32.1619C32.4939 26.5633 32.7631 26.294 32.7631 25.9621C32.7631 25.6301 32.4939 25.3609 32.1619 25.3609Z" fill="#FFFDF5"/>
<path d="M44.3258 50.2231H41.7071C41.3752 50.2231 41.106 50.4923 41.106 50.8243C41.106 51.1562 41.3752 51.4254 41.7071 51.4254H44.3258C44.6577 51.4254 44.9269 51.1562 44.9269 50.8243C44.9269 50.4923 44.6577 50.2231 44.3258 50.2231Z" fill="#FFFDF5"/>
<path d="M38.244 50.2231H35.6253C35.2934 50.2231 35.0242 50.4923 35.0242 50.8243C35.0242 51.1562 35.2934 51.4254 35.6253 51.4254H38.244C38.5759 51.4254 38.8451 51.1562 38.8451 50.8243C38.8451 50.4923 38.5759 50.2231 38.244 50.2231Z" fill="#FFFDF5"/>
</g>
<defs>
<clipPath id="clip0_3815_9096">
<rect width="52" height="52" fill="white" transform="translate(0.495117 0.494995)"/>
</clipPath>
</defs>
</svg>
