<svg width="53" height="46" viewBox="0 0 53 46" fill="none" xmlns="http://www.w3.org/2000/svg">
<g clip-path="url(#clip0_3815_9046)">
<path d="M17.7484 27.3842C17.9844 27.3842 18.1784 27.1903 18.1784 26.9542V15.631H31.6178V23.4384C31.6178 23.6745 31.8118 23.8684 32.0478 23.8684C32.2839 23.8684 32.4778 23.6745 32.4778 23.4384V15.631H45.9173V22.1189C45.9173 22.355 46.1112 22.5489 46.3473 22.5489C46.5834 22.5489 46.7773 22.355 46.7773 22.1189V0.985858C46.7773 0.749782 46.5834 0.555862 46.3473 0.555862H17.7484C17.5123 0.555862 17.3184 0.749782 17.3184 0.985858V26.9542C17.3184 27.1903 17.5123 27.3842 17.7484 27.3842ZM45.9173 14.771H32.4778V1.41585H45.9173V14.771ZM18.1784 1.41585H31.6178V14.771H18.1784V1.41585Z" fill="#FFFDF5"/>
<path d="M52.5486 24.2731C52.4685 24.193 52.3589 24.1466 52.2451 24.1466H34.2189C34.0883 24.1466 33.966 24.2057 33.8859 24.3068L30.1045 28.9862H13.929V19.9394C13.929 19.7034 13.7351 19.5094 13.499 19.5094H7.45381C7.28097 19.5094 7.12499 19.6148 7.05754 19.775L3.23816 28.9862H1.10504C0.868969 28.9862 0.675049 29.1801 0.675049 29.4162C0.675049 30.057 0.75093 45.0942 7.27254 45.0942H38.7044C44.4292 45.0942 48.6618 41.5193 50.9466 34.7574C52.6455 29.7282 52.675 24.7832 52.675 24.5766C52.675 24.4628 52.6287 24.3532 52.5486 24.2731ZM7.74047 20.3694H13.069V24.682H11.269C11.0329 24.682 10.839 24.876 10.839 25.112C10.839 25.3481 11.0329 25.542 11.269 25.542H13.069V28.982H4.16982L7.74047 20.3652V20.3694ZM50.1246 34.5003C47.9367 40.9586 44.0962 44.2342 38.7044 44.2342H7.27254C2.15474 44.2342 1.59828 32.2828 1.53926 29.8462H30.3026C30.4333 29.8462 30.5556 29.7872 30.6357 29.686L34.4171 25.0066H51.7982C51.7518 26.3219 51.4947 30.4364 50.1204 34.5003H50.1246Z" fill="#FFFDF5"/>
<path d="M43.8812 31.3554C44.3913 31.3554 44.8045 30.9422 44.8045 30.4321C44.8045 29.922 44.3913 29.5089 43.8812 29.5089C43.3711 29.5089 42.958 29.922 42.958 30.4321C42.958 30.9422 43.3711 31.3554 43.8812 31.3554Z" fill="#FFFDF5"/>
<path d="M7.02393 35.4656C7.02393 35.7017 7.21785 35.8956 7.45392 35.8956H39.4549C39.691 35.8956 39.8849 35.7017 39.8849 35.4656C39.8849 35.2295 39.691 35.0356 39.4549 35.0356H7.45392C7.21785 35.0356 7.02393 35.2295 7.02393 35.4656Z" fill="#FFFDF5"/>
</g>
<defs>
<clipPath id="clip0_3815_9046">
<rect width="52" height="44.5383" fill="white" transform="translate(0.675049 0.555855)"/>
</clipPath>
</defs>
</svg>
