<svg width="53" height="53" viewBox="0 0 53 53" fill="none" xmlns="http://www.w3.org/2000/svg">
<g clip-path="url(#clip0_3815_9012)">
<path d="M52.1827 16.2346C52.5063 16.2346 52.77 15.9709 52.77 15.6473C52.77 15.3237 52.5063 15.06 52.1827 15.06H48.2993V10.6702H52.1827C52.5063 10.6702 52.77 10.4065 52.77 10.0829C52.77 9.7593 52.5063 9.49562 52.1827 9.49562H48.2993V4.03013C48.2993 2.23228 46.8371 0.77002 45.0362 0.77002C43.2353 0.77002 41.7761 2.23228 41.7761 4.03013V38.0276C39.0463 39.2951 37.3054 42.0039 37.3054 45.0392C37.3054 49.3032 40.7753 52.77 45.0362 52.77C49.2971 52.77 52.767 49.3002 52.767 45.0392C52.767 42.0039 51.0261 39.2951 48.2963 38.0276V32.9187H52.1797C52.5033 32.9187 52.767 32.655 52.767 32.3314C52.767 32.0078 52.5033 31.7441 52.1797 31.7441H48.2963V27.3543H52.1797C52.5033 27.3543 52.767 27.0906 52.767 26.767C52.767 26.4434 52.5033 26.1797 52.1797 26.1797H48.2963V21.79H52.1797C52.5033 21.79 52.767 21.5263 52.767 21.2027C52.767 20.879 52.5033 20.6154 52.1797 20.6154H48.2963V16.2256H52.1797L52.1827 16.2346ZM51.5984 45.0392C51.5984 48.6559 48.6559 51.5984 45.0392 51.5984C41.4225 51.5984 38.48 48.6559 38.48 45.0392C38.48 42.3514 40.0921 39.9633 42.5851 38.9565C42.8069 38.8666 42.9507 38.6509 42.9507 38.4141V4.03013C42.9507 2.8795 43.8886 1.94162 45.0392 1.94162C46.1898 1.94162 47.1277 2.8795 47.1277 4.03013V38.4111C47.1277 38.6509 47.2715 38.8666 47.4933 38.9535C49.9863 39.9603 51.5984 42.3484 51.5984 45.0362V45.0392Z" fill="#FFFDF5"/>
<path d="M17.7057 10.4065C13.6815 10.4065 10.4094 13.6816 10.4094 17.7028C10.4094 18.0264 10.6731 18.2901 10.9967 18.2901C11.3203 18.2901 11.584 18.0264 11.584 17.7028C11.584 14.3258 14.3317 11.5781 17.7087 11.5781C18.0323 11.5781 18.296 11.3144 18.296 10.9908C18.296 10.6672 18.0323 10.4035 17.7087 10.4035L17.7057 10.4065Z" fill="#FFFDF5"/>
<path d="M34.0543 17.1185H29.6256C29.5417 15.3716 29.0773 13.7266 28.3192 12.2553L32.1576 10.038C32.4393 9.87616 32.5351 9.51659 32.3733 9.23792C32.2115 8.95626 31.852 8.86037 31.5733 9.02218L27.7319 11.2395C26.812 9.81623 25.5954 8.59968 24.1721 7.67978L26.3895 3.83836C26.5513 3.5567 26.4554 3.20012 26.1737 3.03832C25.8921 2.87651 25.5355 2.97239 25.3737 3.25406L23.1563 7.09248C21.6851 6.33439 20.037 5.86994 18.2931 5.78604V1.35732C18.2931 1.03371 18.0294 0.77002 17.7058 0.77002C17.3822 0.77002 17.1185 1.03371 17.1185 1.35732V5.78604C15.3716 5.86994 13.7266 6.33439 12.2553 7.09248L10.038 3.25406C9.87616 2.97239 9.51659 2.87651 9.23792 3.03832C8.95626 3.20012 8.86037 3.55969 9.02218 3.83836L11.2395 7.67978C9.81623 8.59968 8.59968 9.81623 7.67978 11.2395L3.83836 9.02218C3.5567 8.86037 3.20012 8.95626 3.03832 9.23792C2.87651 9.51959 2.97239 9.87616 3.25406 10.038L7.09248 12.2553C6.33439 13.7266 5.86994 15.3746 5.78604 17.1185H1.35732C1.03371 17.1185 0.77002 17.3822 0.77002 17.7058C0.77002 18.0294 1.03371 18.2931 1.35732 18.2931H5.78604C5.86994 20.04 6.33439 21.6851 7.09248 23.1563L3.25406 25.3737C2.97239 25.5355 2.87651 25.8951 3.03832 26.1737C3.14619 26.3625 3.34395 26.4674 3.54771 26.4674C3.64659 26.4674 3.74847 26.4434 3.84136 26.3895L7.68278 24.1721C8.60268 25.5954 9.81923 26.812 11.2425 27.7319L9.02518 31.5733C8.86337 31.855 8.95926 32.2115 9.24092 32.3733C9.33381 32.4273 9.43269 32.4512 9.53457 32.4512C9.73833 32.4512 9.93309 32.3464 10.044 32.1576L12.2613 28.3192C13.7326 29.0773 15.3776 29.5417 17.1245 29.6256V34.0543C17.1245 34.3779 17.3882 34.6416 17.7118 34.6416C18.0354 34.6416 18.2991 34.3779 18.2991 34.0543V29.6256C20.046 29.5417 21.6911 29.0773 23.1623 28.3192L25.3797 32.1576C25.4875 32.3464 25.6853 32.4512 25.8891 32.4512C25.988 32.4512 26.0898 32.4273 26.1827 32.3733C26.4644 32.2115 26.5603 31.852 26.3985 31.5733L24.1811 27.7319C25.6044 26.812 26.818 25.5954 27.7409 24.1721L31.5823 26.3895C31.6752 26.4434 31.7741 26.4674 31.8759 26.4674C32.0797 26.4674 32.2745 26.3625 32.3853 26.1737C32.5471 25.8921 32.4512 25.5355 32.1696 25.3737L28.3312 23.1563C29.0893 21.6851 29.5537 20.037 29.6376 18.2931H34.0663C34.3899 18.2931 34.6536 18.0294 34.6536 17.7058C34.6536 17.3822 34.3899 17.1185 34.0663 17.1185H34.0543ZM17.7058 28.466C11.7729 28.466 6.94266 23.6388 6.94266 17.7028C6.94266 11.7669 11.7699 6.94266 17.7058 6.94266C23.6418 6.94266 28.469 11.7699 28.469 17.7058C28.469 23.6418 23.6418 28.469 17.7058 28.469V28.466Z" fill="#FFFDF5"/>
<path d="M29.6436 51.6463L6.23551 41.4435C6.05272 41.3656 5.84597 41.3806 5.68117 41.4914C5.51636 41.5993 5.41748 41.7851 5.41748 41.9829V52.1857C5.41748 52.5093 5.68117 52.773 6.00478 52.773H29.4129C29.6915 52.773 29.9313 52.5782 29.9882 52.3056C30.0451 52.0329 29.9043 51.7602 29.6496 51.6493L29.6436 51.6463ZM6.58908 51.5984V42.8788L26.5962 51.5984H6.58908Z" fill="#FFFDF5"/>
</g>
<defs>
<clipPath id="clip0_3815_9012">
<rect width="52" height="52" fill="white" transform="translate(0.77002 0.77002)"/>
</clipPath>
</defs>
</svg>
