<svg width="53" height="53" viewBox="0 0 53 53" fill="none" xmlns="http://www.w3.org/2000/svg">
<g clip-path="url(#clip0_3815_9030)">
<path d="M30.1351 48.8691C28.6501 49.1562 27.1229 49.3016 25.5958 49.3016C21.1636 49.3016 17.271 44.835 15.0741 38.1369H22.2927C22.5529 38.1369 22.7634 37.9264 22.7634 37.6661C22.7634 37.4058 22.5529 37.1953 22.2927 37.1953H14.7793C13.8033 33.8807 13.2292 30.0724 13.1909 26.0153H25.1212V31.8943C25.1212 32.1545 25.3317 32.3651 25.5919 32.3651C25.8522 32.3651 26.0627 32.1545 26.0627 31.8943V26.0153H37.9891C37.9585 29.2725 37.5911 32.4148 36.8868 35.3696C36.8256 35.6222 36.9825 35.8748 37.2351 35.9361C37.4877 35.9973 37.7403 35.8404 37.8016 35.5878C38.525 32.5641 38.9001 29.3452 38.9307 26.0153H49.2993C49.2801 27.0985 49.1921 28.1816 49.0275 29.2418C48.9893 29.4983 49.1653 29.7394 49.4218 29.7777C49.6782 29.8198 49.9193 29.6399 49.9576 29.3835C50.1528 28.1357 50.2485 26.8535 50.2485 25.579C50.2523 11.9914 39.1909 0.930054 25.5958 0.930054C12.0006 0.930054 0.939209 11.9914 0.939209 25.5866C0.939209 39.1818 12.0006 50.2432 25.5958 50.2432C27.1842 50.2432 28.7726 50.0901 30.315 49.7915C30.5715 49.7418 30.7361 49.4968 30.6863 49.2404C30.6365 48.9839 30.3878 48.8194 30.1351 48.8691ZM13.8072 37.1953H4.9236C3.0558 33.8807 1.96114 30.0724 1.88842 26.0153H12.2609C12.2953 29.9767 12.8312 33.7889 13.811 37.1953H13.8072ZM4.96571 13.8975H13.8301C12.8426 17.3001 12.2991 21.1123 12.257 25.0776H1.88459C1.9688 21.0204 3.07876 17.2121 4.96571 13.8975ZM13.1948 25.0776C13.2407 21.0204 13.8186 17.2121 14.8061 13.8975H25.125V25.0776H13.1948ZM26.0665 1.89075C30.2844 2.19312 33.9703 6.54112 36.0907 12.9598H26.0665V1.89075ZM25.125 12.956H15.1008C17.2213 6.5373 20.9071 2.19312 25.125 1.89075V12.9598V12.956ZM26.0665 13.8975H36.3854C37.3729 17.2121 37.9508 21.0204 37.9968 25.0776H26.0665V13.8975ZM49.3031 25.0776H38.9307C38.8886 21.1123 38.3451 17.304 37.3576 13.8975H46.222C48.1051 17.2121 49.2151 21.0204 49.3031 25.0776ZM45.6594 12.956H37.0743C36.5308 11.268 35.8764 9.69113 35.1147 8.25966C33.6564 5.52302 31.9111 3.49829 29.9974 2.27732C36.5768 3.51742 42.207 7.48268 45.6632 12.9521L45.6594 12.956ZM21.1942 2.28115C19.2804 3.50211 17.5313 5.52684 16.0768 8.26348C15.3152 9.69496 14.6607 11.2719 14.1172 12.9598H5.53217C8.98455 7.48651 14.6148 3.52125 21.1942 2.28115ZM5.48242 38.1369H14.0904C14.6377 39.8554 15.3037 41.4553 16.0768 42.9097C17.5351 45.6464 19.2804 47.6711 21.1942 48.8921C14.5803 47.6481 8.93096 43.6484 5.47859 38.1369H5.48242Z" fill="#FFFDF5"/>
<path d="M52.0627 31.7833C51.9938 31.6379 51.856 31.5345 51.6953 31.5154C51.4427 31.4848 45.4948 30.7844 41.7056 35.9668C38.3298 40.5789 39.9143 45.4129 40.3775 46.5765C39.3479 47.9927 38.7355 49.3399 38.3757 50.3848C37.8092 49.0031 36.8524 47.8855 36.4237 47.4224C36.8179 46.3086 37.9126 42.305 35.0343 38.5924C31.7235 34.3171 26.7249 35.0405 26.5144 35.075C26.3536 35.1017 26.2196 35.2051 26.1546 35.3544C26.0704 35.5496 24.1184 40.2076 27.4291 44.4829C29.8634 47.6252 33.2086 48.0692 34.8927 48.0692C35.241 48.0692 35.5127 48.0501 35.6965 48.0309C36.2093 48.5783 37.8781 50.5111 37.8781 52.4631C37.8781 52.7119 38.0733 52.9186 38.3259 52.9339C38.3336 52.9339 38.3412 52.9339 38.3489 52.9339C38.59 52.9339 38.7929 52.7502 38.8158 52.5091C38.8158 52.4823 39.0953 49.9255 41.1276 47.1315C41.2884 47.143 41.5142 47.1544 41.7936 47.1544C43.6691 47.1544 47.9023 46.6684 50.8379 42.6572C54.6271 37.4786 52.1622 32.0206 52.0551 31.7872L52.0627 31.7833ZM28.1793 43.9011C25.5881 40.5559 26.5871 36.9466 26.9277 35.9706C27.9573 35.8826 31.7044 35.8213 34.2956 39.1665C36.5347 42.0601 36.0945 45.1489 35.7118 46.565L31.5437 41.3405C31.3829 41.1377 31.0844 41.1032 30.8815 41.2678C30.6786 41.4286 30.6442 41.7271 30.8088 41.93L34.9539 47.1277C33.4765 47.1391 30.3992 46.7794 28.1793 43.9088V43.9011ZM50.0877 42.0945C47.443 45.7077 43.5428 46.1823 41.8319 46.2014C44.4307 42.7414 47.309 38.7532 47.3396 38.711C47.4927 38.5005 47.443 38.2058 47.2325 38.0527C47.0219 37.8996 46.7272 37.9494 46.5741 38.1599C46.5435 38.202 43.6576 42.2017 41.0587 45.6579C40.5612 44.0389 39.8033 40.154 42.4634 36.5179C45.4833 32.3881 50.149 32.3613 51.3087 32.4263C51.7221 33.5095 53.1153 37.9532 50.0839 42.0945H50.0877Z" fill="#FFFDF5"/>
</g>
<defs>
<clipPath id="clip0_3815_9030">
<rect width="52.0115" height="52" fill="white" transform="translate(0.939209 0.930054)"/>
</clipPath>
</defs>
</svg>
