<svg width="49" height="44" viewBox="0 0 49 44" fill="none" xmlns="http://www.w3.org/2000/svg">
<g clip-path="url(#clip0_3815_8828)">
<path d="M48.3801 37.3133C47.4487 35.9784 45.9075 33.8304 44.2237 31.5095V0.652161C44.2237 0.373047 43.9961 0.145508 43.717 0.145508H6.24288C5.96376 0.145508 5.73622 0.373047 5.73622 0.652161V31.5125C4.05243 33.8334 2.51124 35.9814 1.57984 37.3163C1.13387 37.9564 0.960938 38.6754 0.960938 39.8829C0.960938 42.7863 2.6781 43.7541 2.75091 43.7936C2.82372 43.833 2.90867 43.8542 2.99362 43.8542H46.9693C47.0543 43.8542 47.1362 43.833 47.212 43.7936C47.2848 43.7541 49.002 42.7863 49.002 39.8829C49.002 38.6754 48.8291 37.9564 48.3831 37.3163L48.3801 37.3133ZM43.2104 30.1169C41.8482 28.242 40.4556 26.3368 39.2724 24.7167V5.60038C39.2724 5.32126 39.0449 5.09372 38.7658 5.09372H27.944V1.15578H43.2104V30.1169ZM22.2495 10.312H27.7135C28.5508 10.312 29.2304 10.9915 29.2304 11.8289V13.634H20.7326V11.8289C20.7326 10.9915 21.4121 10.312 22.2495 10.312ZM26.9338 1.15578V9.29865H23.0262V1.15578H26.9338ZM6.74953 1.15578H22.0159V5.09372H11.1941C10.915 5.09372 10.6875 5.32126 10.6875 5.60038V24.7167C9.50124 26.3368 8.11173 28.242 6.74953 30.1169V1.15578ZM46.8176 42.8409H3.14531C2.84799 42.6195 1.97424 41.8064 1.97424 39.8799C1.97424 38.7483 2.14111 38.2811 2.41415 37.8897C5.37216 33.6453 14.5556 21.1549 14.6467 21.0306C14.8135 20.8061 14.765 20.4905 14.5374 20.3237C14.3129 20.1598 13.9974 20.2053 13.8305 20.4329C13.8032 20.4693 12.9538 21.6252 11.7008 23.3363V6.10703H22.0159V9.31078C20.7326 9.4291 19.7223 10.5122 19.7223 11.8258V14.0011L18.0779 16.8469C17.9869 17.0046 17.9869 17.1958 18.0779 17.3535L19.789 20.3176C19.8831 20.4784 20.053 20.5694 20.2259 20.5694C20.3109 20.5694 20.3988 20.5482 20.4777 20.5027C20.7204 20.3631 20.8023 20.0537 20.6628 19.8109L19.0973 17.1017L20.5172 14.6443H29.4397L30.8596 17.1017L29.2941 19.8109C29.1545 20.0537 29.2365 20.3631 29.4792 20.5027C29.558 20.5482 29.646 20.5694 29.731 20.5694C29.9069 20.5694 30.0768 20.4784 30.1678 20.3176L31.8789 17.3535C31.97 17.1958 31.97 17.0046 31.8789 16.8469L30.2346 14.0011V11.8258C30.2346 10.5122 29.2243 9.4291 27.941 9.31078V6.10703H38.2561V23.3363C37.0031 21.6252 36.1536 20.4723 36.1263 20.4329C35.9595 20.2084 35.644 20.1598 35.4194 20.3237C35.1949 20.4905 35.1464 20.8061 35.3102 21.0306C35.4012 21.1549 44.5847 33.6453 47.5427 37.8897C47.8127 38.278 47.9826 38.7483 47.9826 39.8799C47.9826 41.8125 47.1028 42.6225 46.8116 42.8409H46.8176Z" fill="#12271D"/>
<path d="M41.0754 36.188H8.88617C8.60706 36.188 8.37952 36.4155 8.37952 36.6946C8.37952 36.9738 8.60706 37.2013 8.88617 37.2013H41.0754C41.3545 37.2013 41.582 36.9738 41.582 36.6946C41.582 36.4155 41.3545 36.188 41.0754 36.188Z" fill="#12271D"/>
<path d="M12.9753 32.1818H36.9761C37.2552 32.1818 37.4828 31.9542 37.4828 31.6751C37.4828 31.396 37.2552 31.1685 36.9761 31.1685H12.9753C12.6962 31.1685 12.4686 31.396 12.4686 31.6751C12.4686 31.9542 12.6962 32.1818 12.9753 32.1818Z" fill="#12271D"/>
<path d="M16.5352 27.6574H33.4277C33.7068 27.6574 33.9344 27.4298 33.9344 27.1507C33.9344 26.8716 33.7068 26.644 33.4277 26.644H16.5352C16.2561 26.644 16.0286 26.8716 16.0286 27.1507C16.0286 27.4298 16.2561 27.6574 16.5352 27.6574Z" fill="#12271D"/>
</g>
<defs>
<clipPath id="clip0_3815_8828">
<rect width="48.038" height="43.7087" fill="white" transform="translate(0.961914 0.145508)"/>
</clipPath>
</defs>
</svg>
