<svg width="56" height="56" viewBox="0 0 56 56" fill="none" xmlns="http://www.w3.org/2000/svg">
<g clip-path="url(#clip0_3815_8889)">
<path d="M18.6065 49.7896L14.1963 47.709V21.4745C14.1963 21.1315 13.9181 20.8564 13.5783 20.8564C13.2386 20.8564 12.9603 21.1347 12.9603 21.4745V47.709L8.55012 49.7896C8.24274 49.9352 8.11007 50.304 8.25568 50.6114C8.40128 50.9188 8.77015 51.0547 9.07753 50.9059L13.5783 48.7833L18.0791 50.9059C18.1632 50.9447 18.2538 50.9641 18.3412 50.9641C18.5741 50.9641 18.7942 50.8314 18.9009 50.6082C19.0465 50.3008 18.9139 49.9319 18.6065 49.7863V49.7896Z" fill="#12271D"/>
<path d="M44.5239 31.5697C44.5239 31.2267 44.2456 30.9517 43.9059 30.9517H23.9679C23.6249 30.9517 23.3499 31.2299 23.3499 31.5697C23.3499 31.9094 23.6281 32.1877 23.9679 32.1877H43.9059C44.2489 32.1877 44.5239 31.9094 44.5239 31.5697Z" fill="#12271D"/>
<path d="M24.806 36.8892C24.463 36.8892 24.188 37.1674 24.188 37.5072C24.188 37.8469 24.4663 38.1252 24.806 38.1252H44.744C45.087 38.1252 45.362 37.8469 45.362 37.5072C45.362 37.1674 45.0838 36.8892 44.744 36.8892H24.806Z" fill="#12271D"/>
<path d="M51.6586 53.6496L46.2551 15.5305C46.213 15.2264 45.9509 14.9999 45.6435 14.9999H40.583V11.3986C40.583 6.41248 36.5255 2.35498 31.5394 2.35498C26.5532 2.35498 22.4957 6.41248 22.4957 11.3986V14.9999H16.1798V11.3986C16.1798 7.69055 18.8136 4.47109 22.4472 3.74307C22.7837 3.67512 23.0005 3.35156 22.9326 3.01505C22.8646 2.67854 22.5378 2.46176 22.2045 2.52971C17.9982 3.37097 14.9438 7.10167 14.9438 11.3986V14.9999H9.45287C9.14549 14.9999 8.8834 15.2264 8.84134 15.5305L3.43134 53.6496C3.40546 53.8276 3.46046 54.0055 3.57695 54.1414C3.69343 54.2773 3.86492 54.355 4.04288 54.355H51.0438C51.2218 54.355 51.3933 54.2773 51.5097 54.1414C51.6262 54.0055 51.6812 53.8276 51.6553 53.6496H51.6586ZM23.7285 11.3986C23.7285 7.0952 27.2295 3.591 31.5361 3.591C35.8428 3.591 39.3437 7.09196 39.3437 11.3986V14.9999H33.0278V11.3986C33.0278 9.70312 32.5554 8.05295 31.6656 6.62279C31.4844 6.33158 31.1026 6.24422 30.8146 6.42542C30.5234 6.60661 30.436 6.98842 30.6172 7.27639C31.3873 8.51241 31.795 9.93609 31.795 11.3986V14.9999H23.735V11.3986H23.7285ZM9.98352 16.2391H17.1699L22.3987 53.1222H4.75472L9.98352 16.2391ZM23.6476 53.119L18.4188 16.2359H45.1032L50.332 53.119H23.6476Z" fill="#12271D"/>
</g>
<defs>
<clipPath id="clip0_3815_8889">
<rect width="48.2402" height="52" fill="white" transform="translate(3.4248 2.35498)"/>
</clipPath>
</defs>
</svg>
