<svg width="56" height="56" viewBox="0 0 56 56" fill="none" xmlns="http://www.w3.org/2000/svg">
<g clip-path="url(#clip0_3815_8911)">
<path d="M49.2373 3.31006H7.3828C5.13553 3.31006 3.31006 5.13553 3.31006 7.3828V38.122C3.31006 40.3692 5.13553 42.1947 7.3828 42.1947H22.2355V45.4273L16.3338 48.978C16.1644 49.0783 16.0607 49.265 16.0607 49.462V52.75C16.0607 53.0611 16.3131 53.3135 16.6243 53.3135H39.9924C40.3036 53.3135 40.5559 53.0611 40.5559 52.75V49.462C40.5559 49.265 40.4522 49.0817 40.2828 48.978L34.3811 45.4273V42.1947H49.2339C51.4811 42.1947 53.3066 40.3692 53.3066 38.122V7.3828C53.3066 5.13553 51.4811 3.31006 49.2339 3.31006H49.2373ZM33.5306 46.226L39.4323 49.7767V52.183H17.1913V49.7767L23.0895 46.226C23.2589 46.1257 23.3626 45.939 23.3626 45.742V42.1913H33.2575V45.742C33.2575 45.939 33.3612 46.1223 33.5306 46.226ZM52.1795 38.1185C52.1795 39.7435 50.8588 41.0642 49.2339 41.0642H7.3828C5.75785 41.0642 4.43715 39.7435 4.43715 38.1185V7.3828C4.43715 5.75785 5.75785 4.43715 7.3828 4.43715H49.2373C50.8623 4.43715 52.183 5.75785 52.183 7.3828V38.122L52.1795 38.1185Z" fill="#12271D"/>
<path d="M47.989 8.06372H8.62727C8.31611 8.06372 8.06372 8.31611 8.06372 8.62727V36.8737C8.06372 37.1849 8.31611 37.4373 8.62727 37.4373H47.989C48.3002 37.4373 48.5526 37.1849 48.5526 36.8737V8.62727C48.5526 8.31611 48.3002 8.06372 47.989 8.06372ZM47.4255 36.3102H9.19427V9.19427H47.429V36.3102H47.4255Z" fill="#12271D"/>
<path d="M36.255 18.5604H42.2431C42.5542 18.5604 42.8066 18.3081 42.8066 17.9969C42.8066 17.6857 42.5542 17.4333 42.2431 17.4333H36.255C35.9438 17.4333 35.6914 17.6857 35.6914 17.9969C35.6914 18.3081 35.9438 18.5604 36.255 18.5604Z" fill="#12271D"/>
<path d="M36.255 23.3141H42.2431C42.5542 23.3141 42.8066 23.0617 42.8066 22.7506C42.8066 22.4394 42.5542 22.187 42.2431 22.187H36.255C35.9438 22.187 35.6914 22.4394 35.6914 22.7506C35.6914 23.0617 35.9438 23.3141 36.255 23.3141Z" fill="#12271D"/>
<path d="M36.255 28.0714H42.2431C42.5542 28.0714 42.8066 27.819 42.8066 27.5079C42.8066 27.1967 42.5542 26.9443 42.2431 26.9443H36.255C35.9438 26.9443 35.6914 27.1967 35.6914 27.5079C35.6914 27.819 35.9438 28.0714 36.255 28.0714Z" fill="#12271D"/>
<path d="M13.6958 28.5622L22.2458 32.1233C22.3149 32.151 22.3875 32.1682 22.4636 32.1682C22.5397 32.1682 22.6123 32.1544 22.6814 32.1233L31.2314 28.5622C31.4423 28.4758 31.5771 28.2684 31.5771 28.0402V17.4573C31.5771 17.2291 31.4388 17.0251 31.2314 16.9352L22.6814 13.3742C22.5431 13.3154 22.3875 13.3154 22.2492 13.3742L13.6992 16.9352C13.4884 17.0216 13.3535 17.2291 13.3535 17.4573V28.0402C13.3535 28.2684 13.4918 28.4723 13.6992 28.5622H13.6958ZM14.4771 18.3043L21.8966 21.3952V30.7576L14.4771 27.6668V18.3043ZM23.0237 30.7576V21.3952L30.4431 18.3043V27.6668L23.0237 30.7576ZM22.4601 14.5082L29.5408 17.4573L22.4601 20.4064L15.3795 17.4573L22.4601 14.5082Z" fill="#12271D"/>
</g>
<defs>
<clipPath id="clip0_3815_8911">
<rect width="50" height="50" fill="white" transform="translate(3.31006 3.31006)"/>
</clipPath>
</defs>
</svg>
