<svg width="56" height="56" viewBox="0 0 56 56" fill="none" xmlns="http://www.w3.org/2000/svg">
<g clip-path="url(#clip0_3815_8947)">
<path d="M51.2695 29.2732C51.4483 29.0603 51.4483 28.7496 51.2695 28.5367C51.0822 28.3111 49.0005 25.8122 45.6332 23.1047L48.8515 19.1371C49.0558 18.886 49.0175 18.5241 48.7664 18.3198C48.5195 18.1197 48.1534 18.158 47.949 18.4049L44.7179 22.3895C42.7852 20.9166 40.4992 19.4394 37.9492 18.2687L39.9883 13.6285C40.116 13.3348 39.9841 12.9899 39.6903 12.8622C39.3966 12.7345 39.0518 12.8665 38.924 13.1602L36.8849 17.8047C34.3477 16.7574 31.5764 16.0465 28.656 15.9656V11.1253C28.656 10.8061 28.3963 10.5464 28.0771 10.5464C27.7578 10.5464 27.4981 10.8061 27.4981 11.1253V15.9656C24.582 16.0508 21.8107 16.7617 19.2692 17.8047L17.2301 13.1602C17.1024 12.8665 16.7575 12.7345 16.4638 12.8622C16.1701 12.9899 16.0381 13.3348 16.1658 13.6285L18.2049 18.2687C15.6549 19.4394 13.3689 20.9208 11.4362 22.3895L8.20509 18.4049C8.00501 18.158 7.6389 18.1197 7.38774 18.3198C7.13657 18.5241 7.09826 18.886 7.3026 19.1371L10.5209 23.1047C7.15786 25.8122 5.0719 28.3068 4.88459 28.5367C4.70579 28.7496 4.70579 29.0603 4.88459 29.2732C5.30603 29.7883 15.3868 41.8571 28.0771 41.8571C40.7674 41.8571 50.8481 29.7883 51.2695 29.2732ZM28.0771 40.6949C17.1534 40.6949 7.91136 30.942 6.10211 28.9028C7.91136 26.8637 17.1534 17.115 28.0771 17.115C39.0007 17.115 48.2427 26.868 50.052 28.9071C48.2427 30.9462 39.0092 40.6949 28.0771 40.6949Z" fill="#12271D"/>
<path d="M28.0772 19.7842C23.0496 19.7842 18.9543 23.8752 18.9543 28.9071C18.9543 33.9389 23.0454 38.0299 28.0772 38.0299C33.1091 38.0299 37.2001 33.9389 37.2001 28.9071C37.2001 23.8752 33.1091 19.7842 28.0772 19.7842ZM28.0772 36.8635C23.6882 36.8635 20.1165 33.2918 20.1165 28.9028C20.1165 24.5138 23.6882 20.9421 28.0772 20.9421C32.4663 20.9421 36.0379 24.5138 36.0379 28.9028C36.0379 33.2918 32.4663 36.8635 28.0772 36.8635Z" fill="#12271D"/>
<path d="M28.0771 25.1096C25.9826 25.1096 24.2798 26.8124 24.2798 28.9069C24.2798 31.0014 25.9826 32.7042 28.0771 32.7042C30.1716 32.7042 31.8744 31.0014 31.8744 28.9069C31.8744 26.8124 30.1716 25.1096 28.0771 25.1096ZM28.0771 31.5378C26.6254 31.5378 25.442 30.3543 25.442 28.9027C25.442 27.451 26.6254 26.2675 28.0771 26.2675C29.5287 26.2675 30.7122 27.451 30.7122 28.9027C30.7122 30.3543 29.5287 31.5378 28.0771 31.5378Z" fill="#12271D"/>
<path d="M2.65391 11.5594C2.97319 11.5594 3.23287 11.2997 3.23287 10.9804V3.23683H10.9765C11.2957 3.23683 11.5554 2.97715 11.5554 2.65787C11.5554 2.33859 11.2957 2.07891 10.9765 2.07891H2.65391C2.33463 2.07465 2.07495 2.33433 2.07495 2.65361V10.9762C2.07495 11.2954 2.33463 11.5551 2.65391 11.5551V11.5594Z" fill="#12271D"/>
<path d="M53.496 2.07471H45.1734C44.8542 2.07471 44.5945 2.33439 44.5945 2.65367C44.5945 2.97295 44.8542 3.23263 45.1734 3.23263H52.917V10.9762C52.917 11.2955 53.1767 11.5552 53.496 11.5552C53.8153 11.5552 54.075 11.2955 54.075 10.9762V2.65367C54.075 2.33439 53.8153 2.07471 53.496 2.07471Z" fill="#12271D"/>
<path d="M53.496 44.5901C53.1767 44.5901 52.917 44.8498 52.917 45.169V52.9126H45.1734C44.8542 52.9126 44.5945 53.1723 44.5945 53.4916C44.5945 53.8109 44.8542 54.0706 45.1734 54.0706H53.496C53.8153 54.0706 54.075 53.8109 54.075 53.4916V45.169C54.075 44.8498 53.8153 44.5901 53.496 44.5901Z" fill="#12271D"/>
<path d="M10.9809 52.9126H3.23727V45.169C3.23727 44.8498 2.97759 44.5901 2.65831 44.5901C2.33903 44.5901 2.07935 44.8498 2.07935 45.169V53.4916C2.07935 53.8109 2.33903 54.0706 2.65831 54.0706H10.9809C11.3001 54.0706 11.5598 53.8109 11.5598 53.4916C11.5598 53.1723 11.3001 52.9126 10.9809 52.9126Z" fill="#12271D"/>
</g>
<defs>
<clipPath id="clip0_3815_8947">
<rect width="52" height="52" fill="white" transform="translate(2.07495 2.07495)"/>
</clipPath>
</defs>
</svg>
