<svg width="56" height="56" viewBox="0 0 56 56" fill="none" xmlns="http://www.w3.org/2000/svg">
<g clip-path="url(#clip0_3815_9129)">
<g clip-path="url(#clip1_3815_9129)">
<path d="M48.9369 41.7814L48.899 41.7474C48.5396 41.4333 47.8774 40.8506 47.8849 39.6737C47.9076 37.1536 47.8849 12.6634 47.8849 12.4137C47.8849 10.4498 46.2843 8.84912 44.3204 8.84912C42.3565 8.84912 40.7558 10.4498 40.7558 12.4137C40.7558 12.6596 40.7331 37.1536 40.7558 39.6737C40.7672 40.8506 40.1012 41.4333 39.7417 41.7474L39.7039 41.7814C38.2016 43.1059 37.3389 45.0168 37.3389 47.0185C37.3389 50.8669 40.4683 54 44.3204 54C48.1725 54 51.3019 50.8707 51.3019 47.0185C51.3019 45.0168 50.4391 43.1096 48.9369 41.7814ZM44.3204 53.0767C40.9791 53.0767 38.2622 50.3598 38.2622 47.0185C38.2622 45.2817 39.0114 43.6243 40.3169 42.4739L40.3547 42.4399C40.7558 42.088 41.6943 41.263 41.6791 39.6662C41.6564 37.1536 41.6791 12.6634 41.6791 12.4175C41.6791 10.9606 42.8635 9.77242 44.3242 9.77242C45.7848 9.77242 46.9692 10.9568 46.9692 12.4175C46.9692 12.6634 46.9919 37.1536 46.9692 39.6662C46.9541 41.2668 47.8925 42.088 48.2936 42.4399L48.3314 42.4739C49.6369 43.6243 50.3862 45.2817 50.3862 47.0185C50.3862 50.3598 47.6692 53.0767 44.328 53.0767H44.3204Z" fill="#12271D"/>
<path d="M50.2651 15.036H53.7351C53.9886 15.036 54.1967 14.8316 54.1967 14.5743C54.1967 14.317 53.9924 14.1127 53.7351 14.1127H50.2651C50.0116 14.1127 49.8035 14.317 49.8035 14.5743C49.8035 14.8316 50.0078 15.036 50.2651 15.036Z" fill="#12271D"/>
<path d="M50.2651 20.6969H52.2896C52.5431 20.6969 52.7512 20.4925 52.7512 20.2352C52.7512 19.9779 52.5469 19.7736 52.2896 19.7736H50.2651C50.0116 19.7736 49.8035 19.9779 49.8035 20.2352C49.8035 20.4925 50.0078 20.6969 50.2651 20.6969Z" fill="#12271D"/>
<path d="M50.2651 26.3578H52.2896C52.5431 26.3578 52.7512 26.1534 52.7512 25.8961C52.7512 25.6388 52.5469 25.4344 52.2896 25.4344H50.2651C50.0116 25.4344 49.8035 25.6388 49.8035 25.8961C49.8035 26.1534 50.0078 26.3578 50.2651 26.3578Z" fill="#12271D"/>
<path d="M50.2651 32.0186H52.2896C52.5431 32.0186 52.7512 31.8143 52.7512 31.557C52.7512 31.2997 52.5469 31.0953 52.2896 31.0953H50.2651C50.0116 31.0953 49.8035 31.2997 49.8035 31.557C49.8035 31.8143 50.0078 32.0186 50.2651 32.0186Z" fill="#12271D"/>
<path d="M53.7351 36.76H50.2651C50.0116 36.76 49.8035 36.9643 49.8035 37.2217C49.8035 37.479 50.0078 37.6833 50.2651 37.6833H53.7351C53.9886 37.6833 54.1967 37.479 54.1967 37.2217C54.1967 36.9643 53.9924 36.76 53.7351 36.76Z" fill="#12271D"/>
<path d="M27.4704 25.4609L30.0549 26.9518C30.1268 26.9935 30.2063 27.0124 30.2857 27.0124C30.4447 27.0124 30.5998 26.9291 30.6831 26.7815C30.8117 26.5621 30.736 26.2783 30.5128 26.1534L27.9283 24.6625L30.0776 24.0873C30.3236 24.023 30.4674 23.7695 30.403 23.5235C30.3387 23.2775 30.0852 23.1338 29.8392 23.1981L26.8006 24.0116L25.2757 23.13V13.9121L26.8044 13.0304L29.843 13.844C29.8846 13.8553 29.9225 13.8591 29.9641 13.8591C30.1684 13.8591 30.3538 13.7229 30.4068 13.5186C30.4711 13.2726 30.3274 13.0191 30.0814 12.9547L27.9321 12.3796L30.5166 10.8887C30.736 10.76 30.8117 10.48 30.6868 10.2605C30.5582 10.041 30.2782 9.96536 30.0587 10.0902L27.4742 11.5811L28.0494 9.43182C28.1137 9.18585 27.9699 8.93232 27.7239 8.868C27.478 8.79988 27.2245 8.94746 27.1601 9.19342L26.3466 12.232L24.8178 13.1137L16.8335 8.50473V6.74138L19.0585 4.51637C19.2364 4.33474 19.2364 4.04715 19.0585 3.86552C18.8807 3.68389 18.5893 3.68389 18.4077 3.86552L16.8335 5.43967V2.46165C16.8335 2.20812 16.6292 2 16.3719 2C16.1146 2 15.9102 2.20434 15.9102 2.46165V5.44346L14.3361 3.86931C14.1545 3.68767 13.8669 3.68767 13.6852 3.86931C13.5036 4.05094 13.5036 4.33852 13.6852 4.52016L15.9102 6.74516V8.50851L7.92596 13.1175L6.401 12.2358L5.58743 9.19721C5.5231 8.95124 5.26958 8.80745 5.02361 8.87178C4.77765 8.93611 4.63386 9.18964 4.69819 9.4356L5.27336 11.5849L2.68887 10.094C2.4694 9.96536 2.1856 10.041 2.06073 10.2643C1.93585 10.4876 2.00775 10.7676 2.23101 10.8924L4.81549 12.3834L2.66617 12.9585C2.42021 13.0229 2.27642 13.2764 2.34074 13.5223C2.3975 13.7267 2.58292 13.8629 2.78347 13.8629C2.82132 13.8629 2.86294 13.8591 2.90456 13.8478L5.94313 13.0342L7.46809 13.9159V23.1338L5.94313 24.0154L2.90456 23.2019C2.6586 23.1338 2.40507 23.2813 2.34074 23.5273C2.27642 23.7733 2.42021 24.0268 2.66617 24.0911L4.81549 24.6663L2.23101 26.1572C2.01153 26.2858 1.93585 26.5659 2.06073 26.7853C2.14776 26.9329 2.29912 27.0162 2.45805 27.0162C2.53751 27.0162 2.61698 26.9972 2.68887 26.9556L5.27336 25.4647L4.69819 27.614C4.63386 27.86 4.77765 28.1135 5.02361 28.1779C5.06524 28.1892 5.10308 28.193 5.1447 28.193C5.34904 28.193 5.53446 28.0568 5.58743 27.8524L6.401 24.8139L7.92596 23.9322L15.9102 28.5411V30.3045L13.6852 32.5295C13.5036 32.7111 13.5036 32.9987 13.6852 33.1803C13.8669 33.362 14.1545 33.362 14.3361 33.1803L15.9102 31.6062V34.588C15.9102 34.8415 16.1146 35.0496 16.3719 35.0496C16.6292 35.0496 16.8335 34.8453 16.8335 34.588V31.6062L18.4077 33.1803C18.4985 33.2711 18.6158 33.3165 18.7331 33.3165C18.8504 33.3165 18.9677 33.2711 19.0585 33.1803C19.2364 32.9987 19.2364 32.7111 19.0585 32.5295L16.8335 30.3045V28.5411L24.8178 23.9322L26.3466 24.8139L27.1601 27.8524C27.2169 28.0568 27.4023 28.193 27.6029 28.193C27.6407 28.193 27.6823 28.1892 27.7239 28.1779C27.9699 28.1135 28.1137 27.86 28.0494 27.614L27.4742 25.4647L27.4704 25.4609ZM24.3562 22.6002L17.2914 18.521L24.3562 14.4419V22.6002ZM23.8945 13.6472L16.8298 17.7264V9.57182L23.8945 13.651V13.6472ZM15.9102 9.57182V17.7264L8.84547 13.6472L15.9102 9.56804V9.57182ZM8.38761 14.4456L15.4524 18.5248L8.38761 22.604V14.4456ZM8.84926 23.3986L15.914 19.3195V27.474L8.84926 23.3948V23.3986ZM16.8335 27.4778V19.3232L23.8983 23.4024L16.8335 27.4816V27.4778Z" fill="#12271D"/>
<path d="M17.6737 42.5117C17.1969 42.5117 16.8071 42.9015 16.8071 43.3783C16.8071 43.855 17.1969 44.2448 17.6737 44.2448C18.1505 44.2448 18.5402 43.855 18.5402 43.3783C18.5402 42.9015 18.1505 42.5117 17.6737 42.5117Z" fill="#12271D"/>
<path d="M26.3314 39.7494C25.8546 39.7494 25.4648 40.1391 25.4648 40.6159C25.4648 41.0927 25.8546 41.4825 26.3314 41.4825C26.8082 41.4825 27.1979 41.0927 27.1979 40.6159C27.1979 40.1391 26.8082 39.7494 26.3314 39.7494Z" fill="#12271D"/>
<path d="M30.7664 49.9852C30.2897 49.9852 29.8999 50.375 29.8999 50.8518C29.8999 51.3286 30.2897 51.7183 30.7664 51.7183C31.2432 51.7183 31.633 51.3286 31.633 50.8518C31.633 50.375 31.2432 49.9852 30.7664 49.9852Z" fill="#12271D"/>
<path d="M10.6353 49.5803C10.1586 49.5803 9.7688 49.9701 9.7688 50.4469C9.7688 50.9236 10.1586 51.3134 10.6353 51.3134C11.1121 51.3134 11.5019 50.9236 11.5019 50.4469C11.5019 49.9701 11.1121 49.5803 10.6353 49.5803Z" fill="#12271D"/>
<path d="M34.5577 32.3933C34.0809 32.3933 33.6912 32.7831 33.6912 33.2599C33.6912 33.7366 34.0809 34.1264 34.5577 34.1264C35.0345 34.1264 35.4242 33.7366 35.4242 33.2599C35.4242 32.7831 35.0345 32.3933 34.5577 32.3933Z" fill="#12271D"/>
<path d="M35.7874 17.1891C35.3107 17.1891 34.9209 17.5788 34.9209 18.0556C34.9209 18.5324 35.3107 18.9222 35.7874 18.9222C36.2642 18.9222 36.654 18.5324 36.654 18.0556C36.654 17.5788 36.2642 17.1891 35.7874 17.1891Z" fill="#12271D"/>
<path d="M29.4156 5.05754C29.8924 5.05754 30.2822 4.66779 30.2822 4.191C30.2822 3.71422 29.8924 3.32446 29.4156 3.32446C28.9388 3.32446 28.5491 3.71422 28.5491 4.191C28.5491 4.66779 28.9388 5.05754 29.4156 5.05754Z" fill="#12271D"/>
<path d="M40.4837 6.36675C40.9605 6.36675 41.3503 5.97699 41.3503 5.50021C41.3503 5.02342 40.9605 4.63367 40.4837 4.63367C40.0069 4.63367 39.6172 5.02342 39.6172 5.50021C39.6172 5.97699 40.0069 6.36675 40.4837 6.36675Z" fill="#12271D"/>
<path d="M7.92562 36.3551C7.44884 36.3551 7.05908 36.7449 7.05908 37.2216C7.05908 37.6984 7.44884 38.0882 7.92562 38.0882C8.40241 38.0882 8.79216 37.6984 8.79216 37.2216C8.79216 36.7449 8.40241 36.3551 7.92562 36.3551Z" fill="#12271D"/>
</g>
</g>
<defs>
<clipPath id="clip0_3815_9129">
<rect width="56" height="56" fill="white"/>
</clipPath>
<clipPath id="clip1_3815_9129">
<rect width="52.193" height="52" fill="white" transform="translate(2.00024 2)"/>
</clipPath>
</defs>
</svg>
